<?xml version="1.0" standalone="no"?>
<!DOCTYPE svg PUBLIC "-//W3C//DTD SVG 1.1//EN" "http://www.w3.org/Graphics/SVG/1.1/DTD/svg11.dtd" >
<svg xmlns="http://www.w3.org/2000/svg" xmlns:xlink="http://www.w3.org/1999/xlink" version="1.1">
<metadata>
Created by FontForge 20170731 at Wed Jun 20 17:18:01 2007
 By Aleksey,,,
Copyright (c) 1988, 1990, 1995 Adobe Systems Incorporated.  All Rights Reserved.Frutiger is a registered trademark of Linotype AG and/or its subsidiaries.
</metadata>
<defs>
<font id="FrutigerCE-Bold" horiz-adv-x="556" >
  <font-face 
    font-family="Frutiger"
    font-weight="700"
    font-stretch="normal"
    units-per-em="1000"
    panose-1="2 0 8 3 5 0 0 2 0 4"
    ascent="800"
    descent="-200"
    x-height="515"
    cap-height="698"
    bbox="-166 -238 1000 947"
    underline-thickness="50"
    underline-position="-200"
    unicode-range="U+0020-FB02"
  />
<missing-glyph horiz-adv-x="278" 
 />
    <glyph glyph-name="fi" unicode="fi" horiz-adv-x="667" 
d="M461 0v515h134v-515h-134zM461 609v128h134v-128h-134zM118 0v417h-99v98h99v72q0 79 43 127t121 48q50 0 98 -11l-11 -111q-31 18 -58 18q-59 0 -59 -79v-64h117v-98h-117v-417h-134z" />
    <glyph glyph-name="fl" unicode="fl" horiz-adv-x="667" 
d="M461 0v750h134v-750h-134zM118 0v417h-99v98h99v72q0 79 43 127t121 48q50 0 98 -11l-11 -111q-31 18 -58 18q-59 0 -59 -79v-64h117v-98h-117v-417h-134z" />
    <glyph glyph-name=".notdef" horiz-adv-x="278" 
 />
    <glyph glyph-name=".null" horiz-adv-x="0" 
 />
    <glyph glyph-name="nonmarkingreturn" horiz-adv-x="333" 
 />
    <glyph glyph-name="space" unicode=" " horiz-adv-x="278" 
 />
    <glyph glyph-name="exclam" unicode="!" horiz-adv-x="389" 
d="M137 205l-19 493h154l-21 -493h-114zM125 0v140h140v-140h-140z" />
    <glyph glyph-name="quotedbl" unicode="&#x22;" horiz-adv-x="481" 
d="M271 448v250h122v-250h-122zM88 448v250h122v-250h-122z" />
    <glyph glyph-name="numbersign" unicode="#" 
d="M494 285v-80h-92l-29 -205h-88l29 205h-102l-30 -205h-88l29 205h-90v80h101l17 128h-88v80h100l28 205h89l-28 -205h102l28 205h88l-28 -205h81v-80h-93l-17 -128h81zM342 413h-102l-17 -128h102z" />
    <glyph glyph-name="dollar" unicode="$" 
d="M259 434v156q-55 -25 -55 -87q0 -41 55 -69zM306 265v-153q58 25 58 76q0 48 -58 77zM259 782h47v-72q89 0 163 -25l-13 -115q-69 30 -142 30q-5 0 -8 -1v-185q90 -36 121 -56q83 -56 83 -159q0 -93 -56 -144.5t-148 -62.5v-82h-47v79q-4 -1 -11 -1q-36 0 -68.5 4
t-47 7.5t-63.5 15.5l13 126q79 -43 158 -43q12 0 19 2v187q-93 36 -126 60q-75 54 -75 150t56.5 148t144.5 63v74z" />
    <glyph glyph-name="percent" unicode="%" horiz-adv-x="1000" 
d="M729 68q62 0 62 104t-62 104q-36 0 -50 -31.5t-14 -72.5t14 -72.5t50 -31.5zM729 -12q-80 0 -124 48.5t-44 135.5t44 135.5t124 48.5t123 -48.5t43 -135.5t-43 -135.5t-123 -48.5zM274 342q-80 0 -124 48.5t-44 135.5t44 135.5t124 48.5t123 -48.5t43 -135.5t-43 -135.5
t-123 -48.5zM274 422q62 0 62 104t-62 104q-36 0 -50 -31.5t-14 -72.5t14 -72.5t50 -31.5zM245 -22l432 742h82l-432 -742h-82z" />
    <glyph glyph-name="ampersand" unicode="&#x26;" horiz-adv-x="722" 
d="M434 134l-155 173q-85 -44 -85 -112q0 -45 34 -74t84 -29q79 0 122 42zM310 439q33 17 62 45t29 56q0 35 -22.5 53.5t-54.5 18.5q-33 0 -56.5 -19t-23.5 -55q0 -8 2 -16t6.5 -16t8.5 -14.5t12 -15t12 -12.5l13 -13zM388 367l128 -140q40 46 44 152h122q-6 -140 -89 -239
l125 -140h-172l-47 62q-73 -74 -190 -74q-108 0 -178.5 54t-70.5 149q0 66 33.5 112t113.5 80q-37 35 -51.5 50.5t-30 47.5t-15.5 70q0 74 65 116.5t147 42.5t141.5 -39.5t59.5 -118.5q0 -66 -34 -106t-101 -79z" />
    <glyph glyph-name="quotesingle" unicode="'" horiz-adv-x="278" 
d="M78 448v250h122v-250h-122z" />
    <glyph glyph-name="parenleft" unicode="(" horiz-adv-x="333" 
d="M199 756h127q-73 -116 -109 -217.5t-36 -230.5q0 -219 145 -448h-127q-160 218 -160 448q0 131 39.5 234t120.5 214z" />
    <glyph glyph-name="parenright" unicode=")" horiz-adv-x="333" 
d="M133 -140h-126q145 232 145 448q0 128 -36 229.5t-109 218.5h126q81 -113 121 -215.5t40 -232.5q0 -227 -161 -448z" />
    <glyph glyph-name="asterisk" unicode="*" 
d="M484 506l-139 -31l96 -107l-92 -66l-71 124l-76 -124l-91 66l98 107l-137 31l33 104l133 -57l-16 145h114l-17 -144l133 56z" />
    <glyph glyph-name="plus" unicode="+" horiz-adv-x="600" 
d="M248 305v201h104v-201h202v-104h-202v-201h-104v201h-202v104h202z" />
    <glyph glyph-name="comma" unicode="," horiz-adv-x="278" 
d="M23 -110l64 250h145l-91 -250h-118z" />
    <glyph glyph-name="hyphen" unicode="-" horiz-adv-x="333" 
d="M298 214h-263v110h263v-110z" />
    <glyph glyph-name="period" unicode="." horiz-adv-x="278" 
d="M69 0v140h140v-140h-140z" />
    <glyph glyph-name="slash" unicode="/" horiz-adv-x="389" 
d="M21 -12l244 722h104l-244 -722h-104z" />
    <glyph glyph-name="zero" unicode="0" 
d="M277 92q22 0 39 10t27.5 24t18.5 39t11.5 44t5.5 50t2 45.5v42.5q0 39 -0.5 63t-6 66t-15.5 66.5t-31 44t-51 19.5q-24 0 -42.5 -12t-29 -36t-17.5 -46.5t-9.5 -58t-3 -55t-0.5 -51.5v-42.5t2 -45.5t5.5 -50t11 -44t18 -39t27.5 -24t38 -10zM277 -12q-242 0 -242 359
q0 71 11.5 131.5t38 114.5t75.5 85.5t117 31.5q59 0 103.5 -22.5t70.5 -58t42.5 -85.5t22 -96.5t5.5 -100.5q0 -68 -10.5 -125.5t-35.5 -113.5t-75.5 -88t-122.5 -32z" />
    <glyph glyph-name="one" unicode="1" 
d="M79 534l204 164h124v-698h-140v539l-118 -96z" />
    <glyph glyph-name="two" unicode="2" 
d="M505 0h-464v117q3 3 54 50t82.5 79.5t75.5 83t67 95.5t23 81q0 45 -33.5 69.5t-80.5 24.5q-75 0 -161 -56l-11 116q98 50 207 50q102 0 160.5 -52t58.5 -152q0 -49 -19 -98t-64 -105t-71 -83.5t-88 -88.5l-21 -21h285v-110z" />
    <glyph glyph-name="three" unicode="3" 
d="M45 11l8 119q81 -32 155 -32q53 0 100 25.5t47 73.5q0 109 -154 109h-68v110h64q72 0 113.5 23.5t41.5 68.5q0 92 -120 92q-81 0 -157 -37l-8 112q89 35 195 35q37 0 73 -7.5t73.5 -25.5t60.5 -55.5t23 -90.5q0 -118 -130 -167v-2q65 -9 99 -54.5t34 -111.5
q0 -48 -17 -85.5t-43.5 -60t-62.5 -37t-71 -20t-73 -5.5q-103 0 -183 23z" />
    <glyph glyph-name="four" unicode="4" 
d="M142 249h175v303h-2zM16 145v113l261 440h174v-449h89v-104h-89v-145h-134v145h-301z" />
    <glyph glyph-name="five" unicode="5" 
d="M490 698v-104h-269l-3 -149q37 7 64 7q40 0 77 -10.5t71.5 -34.5t55.5 -71t21 -111q0 -103 -71 -170t-201 -67q-79 0 -163 20l3 125q85 -35 143 -35q62 0 105.5 30.5t43.5 92.5q0 63 -46 92t-114 29q-65 0 -125 -19l7 375h401z" />
    <glyph glyph-name="six" unicode="6" 
d="M478 685l-18 -113q-65 28 -122 28t-95.5 -33.5t-53.5 -79.5t-17 -103l2 -2q48 70 135 70q97 0 150.5 -57.5t53.5 -155.5q0 -117 -58.5 -184t-173.5 -67q-237 0 -237 325q0 60 8 114t28.5 107t52 91t82.5 61.5t116 23.5q76 0 147 -25zM278 348q-48 0 -71 -37.5t-23 -94.5
q0 -54 24 -89t73 -35q46 0 69 36.5t23 88.5q0 56 -24 93.5t-71 37.5z" />
    <glyph glyph-name="seven" unicode="7" 
d="M50 588v110h450v-116l-248 -582h-152l259 588h-309z" />
    <glyph glyph-name="eight" unicode="8" 
d="M283 606q-41 0 -71.5 -22t-30.5 -62q0 -21 9.5 -38.5t28 -30t34 -20.5t38.5 -16q30 11 54 40.5t24 60.5q0 39 -23.5 63.5t-62.5 24.5zM269 710q100 0 167 -42.5t67 -125.5q0 -50 -30.5 -97.5t-85.5 -69.5v-1q134 -63 134 -183q0 -101 -65.5 -152t-174.5 -51t-177.5 50
t-68.5 151q0 111 128 173v2q-54 24 -85 66t-31 96q0 90 61 137t161 47zM281 92q43 0 71.5 25.5t28.5 67.5q0 83 -117 121q-89 -43 -89 -115q0 -43 31.5 -71t74.5 -28z" />
    <glyph glyph-name="nine" unicode="9" 
d="M79 13l18 113q65 -28 122 -28t95.5 33.5t53.5 79.5t17 103l-2 2q-47 -70 -135 -70q-97 0 -150.5 57.5t-53.5 155.5q0 117 58.5 184t173.5 67q237 0 237 -325q0 -60 -8 -114t-28.5 -107t-52 -91t-82.5 -61.5t-116 -23.5q-76 0 -147 25zM279 350q48 0 71 37.5t23 94.5
q0 54 -24 89t-73 35q-46 0 -69 -36.5t-23 -88.5q0 -56 24 -93.5t71 -37.5z" />
    <glyph glyph-name="colon" unicode=":" horiz-adv-x="278" 
d="M69 375v140h140v-140h-140zM69 0v140h140v-140h-140z" />
    <glyph glyph-name="semicolon" unicode=";" horiz-adv-x="278" 
d="M23 -110l64 250h145l-91 -250h-118zM69 375v140h140v-140h-140z" />
    <glyph glyph-name="less" unicode="&#x3c;" horiz-adv-x="600" 
d="M554 94v-102l-508 218v86l508 218v-102l-373 -159z" />
    <glyph glyph-name="equal" unicode="=" horiz-adv-x="600" 
d="M554 414v-104h-508v104h508zM554 196v-104h-508v104h508z" />
    <glyph glyph-name="greater" unicode="&#x3e;" horiz-adv-x="600" 
d="M46 94l373 159l-373 159v102l508 -218v-86l-508 -218v102z" />
    <glyph glyph-name="question" unicode="?" horiz-adv-x="500" 
d="M61 566l-11 111q111 33 198 33q61 0 110.5 -17.5t83.5 -59t34 -102.5q0 -38 -18.5 -74t-45 -64.5t-52 -56.5t-41.5 -62t-13 -70h-123q0 105 73 188q6 6 18 19.5t18 19.5t14.5 18t12.5 20.5t7.5 20.5t3.5 25q0 46 -33.5 68.5t-81.5 22.5q-67 0 -154 -40zM175 0v140h140
v-140h-140z" />
    <glyph glyph-name="at" unicode="@" horiz-adv-x="800" 
d="M415 446q-47 0 -79.5 -40t-32.5 -88q0 -36 20 -59t55 -23q46 0 78.5 40.5t32.5 89.5q0 36 -20.5 58t-53.5 22zM631 143h85q-105 -155 -316 -155q-67 0 -130.5 23t-116 66.5t-84.5 114t-32 157.5q0 151 110.5 256t276.5 105q63 0 121.5 -17.5t108 -52t79.5 -92.5t30 -132
q0 -72 -29.5 -129t-72.5 -87.5t-82.5 -46t-67.5 -15.5q-22 0 -37.5 13.5t-16.5 38.5h-2q-46 -52 -101 -52q-64 0 -109.5 47t-45.5 118q0 99 60.5 170t145.5 71q73 0 116 -64l12 48h84l-55 -243q-7 -26 -7 -34q0 -15 15 -15q43 0 78 45.5t35 131.5q0 58 -23 100t-62.5 64
t-82.5 31.5t-91 9.5q-122 0 -202.5 -80t-80.5 -189q0 -116 73.5 -192.5t185.5 -76.5q156 0 231 63z" />
    <glyph glyph-name="A" unicode="A" horiz-adv-x="722" 
d="M459 270l-101 288h-2l-101 -288h204zM9 0l272 698h158l274 -698h-155l-60 160h-283l-61 -160h-145z" />
    <glyph glyph-name="B" unicode="B" horiz-adv-x="611" 
d="M221 312v-202h66q144 0 144 97q0 33 -12 55t-34.5 32t-45 14t-52.5 4h-66zM221 588v-172h57q132 0 132 85q0 23 -8.5 40t-20.5 26t-31.5 14t-35.5 6t-39 1h-54zM81 0v698h244q31 0 58.5 -3.5t59 -15.5t54.5 -31t38 -52t15 -77q0 -61 -38 -103t-101 -53v-2
q71 -7 115.5 -51t44.5 -108q0 -62 -25 -105t-66 -62.5t-78 -27t-77 -7.5h-244z" />
    <glyph glyph-name="C" unicode="C" horiz-adv-x="611" 
d="M583 127l6 -117q-93 -22 -159 -22q-176 0 -279.5 88.5t-103.5 260.5q0 178 102 275.5t281 97.5q84 0 158 -29l-10 -118q-65 37 -151 37q-106 0 -170 -71.5t-64 -181.5q0 -109 64 -179t173 -70q97 0 153 29z" />
    <glyph glyph-name="D" unicode="D" horiz-adv-x="722" 
d="M81 0v698h191q403 0 403 -349t-403 -349h-191zM221 588v-478h78q93 0 161.5 65t68.5 174t-68.5 174t-161.5 65h-78z" />
    <glyph glyph-name="E" unicode="E" 
d="M81 0v698h412v-110h-272v-172h249v-110h-249v-196h274v-110h-414z" />
    <glyph glyph-name="F" unicode="F" horiz-adv-x="500" 
d="M81 0v698h388v-110h-248v-172h236v-110h-236v-306h-140z" />
    <glyph glyph-name="G" unicode="G" horiz-adv-x="722" 
d="M635 681l-9 -118q-80 37 -180 37q-119 0 -186 -71t-67 -182q0 -109 64 -179t173 -70q52 0 92 10v182h-148v110h282v-376q-133 -36 -226 -36q-176 0 -279.5 88.5t-103.5 260.5q0 178 102 275.5t281 97.5q108 0 205 -29z" />
    <glyph glyph-name="H" unicode="H" horiz-adv-x="722" 
d="M81 0v698h140v-282h280v282h140v-698h-140v306h-280v-306h-140z" />
    <glyph glyph-name="I" unicode="I" horiz-adv-x="278" 
d="M69 0v698h140v-698h-140z" />
    <glyph glyph-name="J" unicode="J" horiz-adv-x="389" 
d="M22 1v121q33 -12 67 -12q32 0 52 11t27.5 33t9.5 37.5t2 41.5v465h140v-532q0 -67 -47 -122.5t-144 -55.5q-56 0 -107 13z" />
    <glyph glyph-name="K" unicode="K" horiz-adv-x="667" 
d="M81 0v698h140v-300l252 300h172l-287 -329l299 -369h-183l-251 324h-2v-324h-140z" />
    <glyph glyph-name="L" unicode="L" horiz-adv-x="500" 
d="M81 0v698h140v-588h271v-110h-411z" />
    <glyph glyph-name="M" unicode="M" horiz-adv-x="944" 
d="M81 0v698h224l166 -529h2l166 529h224v-698h-134v576h-2l-188 -576h-134l-188 576l-2 -2v-574h-134z" />
    <glyph glyph-name="N" unicode="N" horiz-adv-x="722" 
d="M74 0v698h172l266 -522h2v522h134v-698h-171l-267 522h-2v-522h-134z" />
    <glyph glyph-name="O" unicode="O" horiz-adv-x="778" 
d="M47 351q0 164 89.5 261.5t252.5 97.5q161 0 251.5 -98.5t90.5 -260.5q0 -163 -90 -263t-252 -100q-164 0 -253 99t-89 264zM193 351q0 -67 18.5 -122t64 -93t113.5 -38t113.5 38t64 93t18.5 122q0 103 -49.5 176t-146.5 73t-146.5 -73t-49.5 -176z" />
    <glyph glyph-name="P" unicode="P" 
d="M209 588v-213h49q133 0 133 104q0 57 -37 83t-96 26h-49zM69 0v698h177q291 0 291 -211q0 -115 -73.5 -168.5t-195.5 -53.5h-59v-265h-140z" />
    <glyph glyph-name="Q" unicode="Q" horiz-adv-x="778" 
d="M713 -132h-169l-122 122q-10 -2 -33 -2q-164 0 -253 99t-89 264q0 164 89.5 261.5t252.5 97.5q161 0 251.5 -98.5t90.5 -260.5q0 -114 -45.5 -199.5t-130.5 -126.5zM193 351q0 -67 18.5 -122t64 -93t113.5 -38t113.5 38t64 93t18.5 122q0 103 -49.5 176t-146.5 73
t-146.5 -73t-49.5 -176z" />
    <glyph glyph-name="R" unicode="R" horiz-adv-x="611" 
d="M209 588v-188h46q30 0 53 3t46.5 12.5t36 30t12.5 51.5q0 30 -12.5 49.5t-36.5 28t-45.5 11t-53.5 2.5h-46zM69 0v698h151h11q37 0 56.5 -0.5t54.5 -2.5t55 -7t47.5 -13.5t43.5 -22.5t31.5 -33.5t22.5 -47t7 -62.5q0 -63 -39 -108t-105 -54v-2q43 -3 74 -72l112 -273
h-156l-84 218q-16 41 -35.5 56.5t-61.5 15.5h-45v-290h-140z" />
    <glyph glyph-name="S" unicode="S" 
d="M469 685l-13 -115q-69 30 -142 30q-44 0 -77 -22.5t-33 -74.5q0 -33 31.5 -55t76.5 -38t90 -37t76.5 -65t31.5 -109q0 -108 -73.5 -159.5t-188.5 -51.5q-36 0 -68.5 4t-47 7.5t-63.5 15.5l13 126q79 -43 158 -43q46 0 85 23.5t39 66.5q0 36 -31.5 60t-76.5 40.5t-90 37.5
t-76.5 64t-31.5 107q0 109 70.5 161t173.5 52q92 0 167 -25z" />
    <glyph glyph-name="T" unicode="T" 
d="M208 0v588h-200v110h540v-110h-200v-588h-140z" />
    <glyph glyph-name="U" unicode="U" horiz-adv-x="722" 
d="M76 252v446h140v-403q0 -197 145 -197t145 197v403h140v-446q0 -264 -285 -264t-285 264z" />
    <glyph glyph-name="V" unicode="V" horiz-adv-x="667" 
d="M250 0l-240 698h150l179 -548h2l177 548h139l-235 -698h-172z" />
    <glyph glyph-name="W" unicode="W" horiz-adv-x="1000" 
d="M195 0l-185 698h147l130 -558h2l119 558h190l123 -558h2l131 558h136l-182 -698h-180l-126 558h-2l-124 -558h-181z" />
    <glyph glyph-name="X" unicode="X" horiz-adv-x="667" 
d="M10 0l229 363l-208 335h162l146 -249l149 249h150l-210 -335l229 -363h-165l-161 272l-163 -272h-158z" />
    <glyph glyph-name="Y" unicode="Y" horiz-adv-x="667" 
d="M266 0v276l-255 422h164l165 -293l168 293h148l-250 -422v-276h-140z" />
    <glyph glyph-name="Z" unicode="Z" 
d="M36 0v114l328 474h-315v110h464v-114l-331 -474h338v-110h-484z" />
    <glyph glyph-name="bracketleft" unicode="[" horiz-adv-x="333" 
d="M72 -140v896h224v-98h-96v-700h96v-98h-224z" />
    <glyph glyph-name="backslash" unicode="\" horiz-adv-x="389" 
d="M264 -12l-244 722h104l244 -722h-104z" />
    <glyph glyph-name="bracketright" unicode="]" horiz-adv-x="333" 
d="M37 756h224v-896h-224v98h96v700h-96v98z" />
    <glyph glyph-name="asciicircum" unicode="^" horiz-adv-x="600" 
d="M170 313h-104l187 385h94l187 -385h-104l-130 280z" />
    <glyph glyph-name="underscore" unicode="_" horiz-adv-x="500" 
d="M500 -125h-500v50h500v-50z" />
    <glyph glyph-name="grave" unicode="`" horiz-adv-x="278" 
d="M136 737l83 -146h-83l-137 146h137z" />
    <glyph glyph-name="a" unicode="a" 
d="M96 373l-4 115q84 39 179 39q117 0 169.5 -51.5t52.5 -165.5v-66q0 -53 2 -129q1 -53 6 -115h-118q-2 10 -6 77h-2q-23 -41 -67 -65t-92 -24q-73 0 -126.5 41.5t-53.5 111.5q0 104 88 147q61 30 173 30h74q0 61 -27.5 86t-88.5 25q-85 0 -159 -56zM164 149
q0 -32 23.5 -47.5t61.5 -15.5q59 0 94 46q28 37 28 106h-58q-149 0 -149 -89z" />
    <glyph glyph-name="b" unicode="b" horiz-adv-x="611" 
d="M204 259q0 -65 28.5 -116t89.5 -51q41 0 68 28t36 63.5t9 75.5q0 39 -9 73.5t-35 62.5t-67 28q-59 0 -89.5 -50.5t-30.5 -113.5zM69 0v750h134v-301h2q59 78 154 78q111 0 163.5 -75.5t52.5 -192.5q0 -75 -20 -133.5t-70.5 -98t-125.5 -39.5q-105 0 -158 75h-2v-63h-130z
" />
    <glyph glyph-name="c" unicode="c" horiz-adv-x="444" 
d="M415 510l-12 -106q-41 19 -91 19q-62 0 -99 -45t-37 -118q0 -75 35.5 -121.5t103.5 -46.5q48 0 103 24l6 -111q-55 -17 -134 -17q-123 0 -188.5 75t-65.5 197q0 116 66 191.5t183 75.5q73 0 130 -17z" />
    <glyph glyph-name="d" unicode="d" horiz-adv-x="611" 
d="M176 259q0 -40 9 -75.5t36 -63.5t68 -28q61 0 89.5 51t28.5 116q0 63 -30.5 113.5t-89.5 50.5q-41 0 -67 -28t-35 -62.5t-9 -73.5zM412 0v58h-2q-56 -70 -158 -70q-75 0 -125.5 39.5t-70.5 98t-20 133.5q0 117 52.5 192.5t163.5 75.5q95 0 154 -72h2v295h134v-750h-130z
" />
    <glyph glyph-name="e" unicode="e" 
d="M164 308h228q-3 54 -29.5 87.5t-79.5 33.5q-54 0 -84 -33t-35 -88zM482 138v-109q-74 -41 -177 -41q-128 0 -198.5 70t-70.5 197q0 118 62 195t177 77q70 0 118.5 -22.5t75.5 -66t39 -97.5t12 -125h-356q4 -61 44 -95.5t103 -34.5q78 0 171 52z" />
    <glyph glyph-name="f" unicode="f" horiz-adv-x="389" 
d="M118 0v417h-99v98h99v72q0 79 43 127t121 48q50 0 98 -11l-11 -111q-31 18 -58 18q-59 0 -59 -79v-64h117v-98h-117v-417h-134z" />
    <glyph glyph-name="g" unicode="g" horiz-adv-x="611" 
d="M290 104q60 0 89 44.5t29 114.5t-28 115t-84 45q-63 0 -91.5 -47.5t-28.5 -115.5q0 -59 30 -107.5t84 -48.5zM414 515h128v-465q0 -272 -272 -272q-95 0 -178 35l11 114q33 -18 76.5 -31.5t73.5 -13.5q43 0 73 13t45.5 31t24.5 48t10.5 52.5t1.5 55.5h-2
q-20 -35 -63 -58.5t-97 -23.5q-107 0 -158.5 73.5t-51.5 186.5q0 66 21.5 124.5t72.5 100.5t124 42q107 0 158 -82h2v70z" />
    <glyph glyph-name="h" unicode="h" horiz-adv-x="611" 
d="M69 0v750h134v-305h2q56 82 162 82q88 0 131.5 -55t43.5 -147v-325h-134v275q0 25 -0.5 40t-5.5 38.5t-13.5 36.5t-25.5 23t-42 10q-34 0 -59 -17t-37 -44.5t-17 -54.5t-5 -55v-252h-134z" />
    <glyph glyph-name="i" unicode="i" horiz-adv-x="278" 
d="M72 0v515h134v-515h-134zM72 609v128h134v-128h-134z" />
    <glyph glyph-name="j" unicode="j" horiz-adv-x="278" 
d="M-15 -214l5 96q54 3 68 20.5t14 77.5v535h134v-553q0 -25 -3 -47.5t-13 -48.5t-26.5 -44.5t-45.5 -31t-67 -12.5q-39 0 -66 8zM72 609v128h134v-128h-134z" />
    <glyph glyph-name="k" unicode="k" 
d="M72 0v750h134v-441h2l160 206h158l-192 -230l216 -285h-170l-172 250h-2v-250h-134z" />
    <glyph glyph-name="l" unicode="l" horiz-adv-x="278" 
d="M72 0v750h134v-750h-134z" />
    <glyph glyph-name="m" unicode="m" horiz-adv-x="889" 
d="M67 0v515h125v-72h2q56 84 153 84q111 0 152 -91q22 44 66.5 67.5t94.5 23.5q89 0 126 -53.5t37 -148.5v-325h-134v307q0 20 -0.5 31t-4.5 30t-11.5 29t-23 18t-37.5 8q-100 0 -100 -173v-250h-134v307q0 20 -0.5 31t-4.5 30t-11.5 29t-23 18t-37.5 8q-100 0 -100 -173
v-250h-134z" />
    <glyph glyph-name="n" unicode="n" horiz-adv-x="611" 
d="M69 0v515h127v-70h2q58 82 169 82q88 0 131.5 -55t43.5 -147v-325h-134v275q0 25 -0.5 40t-5.5 38.5t-13.5 36.5t-25.5 23t-42 10q-34 0 -59 -17t-37 -44.5t-17 -54.5t-5 -55v-252h-134z" />
    <glyph glyph-name="o" unicode="o" horiz-adv-x="611" 
d="M36 254q0 125 76 199t193 74t193.5 -74t76.5 -199q0 -115 -72.5 -190.5t-197.5 -75.5q-124 0 -196.5 75.5t-72.5 190.5zM176 270q0 -75 29.5 -126.5t99.5 -51.5q37 0 63.5 15.5t40.5 42t20 56t6 64.5q0 64 -34 108.5t-96 44.5t-95.5 -45t-33.5 -108z" />
    <glyph glyph-name="p" unicode="p" horiz-adv-x="611" 
d="M69 -210v725h128v-73h2q51 85 160 85q111 0 163.5 -75.5t52.5 -192.5q0 -55 -12 -102t-37 -86t-68.5 -61t-101.5 -22q-46 0 -82 15.5t-69 55.5h-2v-269h-134zM324 423q-59 0 -89.5 -50.5t-30.5 -113.5q0 -65 28.5 -116t89.5 -51q41 0 68 28t36 63.5t9 75.5q0 39 -9 73.5
t-35 62.5t-67 28z" />
    <glyph glyph-name="q" unicode="q" horiz-adv-x="611" 
d="M408 -210v269h-2q-33 -40 -69 -55.5t-82 -15.5q-58 0 -101.5 22t-68.5 61t-37 86t-12 102q0 117 53 192.5t166 75.5q106 0 157 -85h2v73h128v-725h-134zM287 423q-41 0 -67 -28t-35 -62.5t-9 -73.5q0 -40 9 -75.5t36 -63.5t68 -28q61 0 89.5 51t28.5 116
q0 63 -30.5 113.5t-89.5 50.5z" />
    <glyph glyph-name="r" unicode="r" horiz-adv-x="389" 
d="M72 0v515h119v-117h2q5 42 45.5 85.5t95.5 43.5q27 0 41 -4v-135q-19 11 -60 11q-26 0 -45.5 -9.5t-31 -29t-18.5 -38t-10 -47t-3.5 -44.5t-0.5 -42v-189h-134z" />
    <glyph glyph-name="s" unicode="s" horiz-adv-x="444" 
d="M384 508l-9 -101q-64 22 -120 22q-32 0 -55.5 -13.5t-23.5 -43.5q0 -22 24 -35.5t58 -23t68.5 -24t58.5 -48t24 -85.5q0 -84 -62.5 -126t-153.5 -42q-69 0 -152 22l8 110q68 -34 132 -34q33 0 60.5 14.5t27.5 48.5q0 23 -17.5 38t-43 21.5t-56 17.5t-56 24t-43 43
t-17.5 74q0 79 58.5 119.5t143.5 40.5q57 0 146 -19z" />
    <glyph glyph-name="t" unicode="t" horiz-adv-x="389" 
d="M113 155v262h-99v98h99v103l134 43v-146h119v-98h-119v-240q0 -85 63 -85q39 0 61 14l4 -106q-42 -12 -99 -12q-78 0 -120.5 44.5t-42.5 122.5z" />
    <glyph glyph-name="u" unicode="u" horiz-adv-x="611" 
d="M542 515v-515h-127v70h-2q-67 -82 -169 -82q-88 0 -131.5 55t-43.5 147v325h134v-275q0 -25 0.5 -40t5.5 -38.5t13.5 -36.5t25.5 -23t42 -10q34 0 59 17t37 44.5t17 54.5t5 55v252h134z" />
    <glyph glyph-name="v" unicode="v" 
d="M203 0l-191 515h144l128 -375h2l124 375h134l-190 -515h-151z" />
    <glyph glyph-name="w" unicode="w" horiz-adv-x="889" 
d="M185 0l-174 515h142l114 -381h2l104 381h156l112 -381h2l107 381h128l-158 -515h-158l-112 393h-2l-110 -393h-153z" />
    <glyph glyph-name="x" unicode="x" 
d="M186 270l-159 245h158l101 -168l99 168h142l-154 -245l174 -270h-160l-115 192l-116 -192h-147z" />
    <glyph glyph-name="y" unicode="y" 
d="M159 515l124 -376h2l124 376h136l-193 -511l-9 -24q-13 -35 -20 -52.5t-21 -46t-27.5 -43t-33.5 -30.5t-45.5 -23t-57.5 -7q-47 0 -95 14l9 99q26 -9 69 -9q40 0 63.5 25t23.5 67l-197 541h148z" />
    <glyph glyph-name="z" unicode="z" horiz-adv-x="500" 
d="M47 411v104h408v-110l-256 -301h265v-104h-428v109l261 302h-250z" />
    <glyph glyph-name="braceleft" unicode="{" horiz-adv-x="333" 
d="M18 265v86q33 0 57.5 22t24.5 71v177q0 65 44 100t104 35h75v-80h-45q-31 0 -40.5 -17.5t-9.5 -55.5v-173q0 -33 -11 -57.5t-29.5 -37t-35.5 -18.5t-36 -8v-2q112 -10 112 -128v-166q0 -39 9.5 -56t40.5 -17h45v-80h-75q-61 0 -104.5 35t-43.5 100v170q0 53 -24.5 76.5
t-57.5 23.5z" />
    <glyph glyph-name="bar" unicode="|" horiz-adv-x="222" 
d="M59 -214v1000h104v-1000h-104z" />
    <glyph glyph-name="braceright" unicode="}" horiz-adv-x="333" 
d="M315 351v-86q-33 0 -57.5 -23.5t-24.5 -76.5v-170q0 -66 -43 -100.5t-105 -34.5h-75v80h45q31 0 40.5 17t9.5 56v166q0 118 112 128v2q-19 2 -36 8t-35.5 18.5t-29.5 37t-11 57.5v173q0 38 -9.5 55.5t-40.5 17.5h-45v80h75q62 0 105 -34.5t43 -100.5v-177q0 -49 24.5 -71
t57.5 -22z" />
    <glyph glyph-name="asciitilde" unicode="~" horiz-adv-x="600" 
d="M105 164l-36 88q46 88 121 88q53 0 117 -34q3 -1 17 -8l18 -9t16 -7t18.5 -6.5t16.5 -3.5t19 -2q16 0 32.5 12t26 24.5t24.5 35.5l36 -88q-52 -88 -115 -88q-48 0 -116 35q-66 35 -109 35q-53 0 -86 -72z" />
    <glyph glyph-name="exclamdown" unicode="&#xa1;" horiz-adv-x="389" 
d="M117 -183l21 493h111l22 -493h-154zM123 375v140h140v-140h-140z" />
    <glyph glyph-name="cent" unicode="&#xa2;" 
d="M258 145l85 278q-54 -7 -85.5 -51.5t-31.5 -111.5q0 -71 32 -115zM401 608h58l-28 -91q12 -1 34 -7l-12 -106q-26 12 -52 16l-97 -315q25 -13 61 -13q48 0 103 24l6 -111q-55 -17 -134 -17q-41 0 -70 8l-27 -86h-58l32 104q-64 32 -97.5 96t-33.5 150q0 116 66 191.5
t183 75.5q28 0 40 -2z" />
    <glyph glyph-name="sterling" unicode="&#xa3;" 
d="M54 0v104h88v219h-76v80h76v84q0 99 69 161t171 62q73 0 130 -17l-7 -110q-62 17 -97 17q-62 0 -94 -37.5t-32 -92.5v-67h147v-80h-147v-219h223v-104h-451z" />
    <glyph glyph-name="currency" unicode="&#xa4;" 
d="M479 611l59 -59l-58 -58q46 -64 46 -142q0 -77 -46 -144l58 -58l-59 -59l-58 58q-66 -46 -143 -46t-143 46l-58 -58l-59 59l58 58q-46 65 -46 143q0 77 46 143l-58 58l59 59l58 -58q64 46 143 46q77 0 143 -46zM140 351q0 -59 40.5 -101.5t97.5 -42.5t97.5 42.5
t40.5 101.5t-40.5 101.5t-97.5 42.5t-97.5 -42.5t-40.5 -101.5z" />
    <glyph glyph-name="yen" unicode="&#xa5;" 
d="M567 698l-173 -329h98v-80h-140l-7 -13v-49h147v-80h-147v-147h-134v147h-147v80h147v49l-8 13h-139v80h100l-174 329h141l151 -308l154 308h131z" />
    <glyph glyph-name="brokenbar" unicode="&#xa6;" horiz-adv-x="222" 
d="M59 -89v250h104v-250h-104zM59 411v250h104v-250h-104z" />
    <glyph glyph-name="section" unicode="&#xa7;" 
d="M170 309q0 -29 32 -50.5t83 -40t66 -27.5q36 31 36 75q0 25 -18.5 43t-40.5 27t-61 22.5t-61 24.5q-36 -26 -36 -74zM451 690l-11 -109q-66 25 -143 25q-96 0 -96 -68q-1 -28 28.5 -47.5t72 -33.5t85.5 -31.5t73.5 -52.5t30.5 -86q0 -40 -19.5 -74.5t-54.5 -53.5
q68 -40 68 -114q0 -84 -66.5 -132.5t-154.5 -48.5q-67 0 -185 29l9 114q95 -39 168 -39q101 0 101 69q0 28 -30 47.5t-72.5 34t-85.5 32t-73 52t-30 82.5q0 89 77 135q-70 48 -70 119q0 56 33.5 96t81.5 57.5t103 17.5q54 0 160 -20z" />
    <glyph glyph-name="dieresis" unicode="&#xa8;" horiz-adv-x="278" 
d="M184 725h116v-116h-116v116zM94 609h-116v116h116v-116z" />
    <glyph glyph-name="copyright" unicode="&#xa9;" horiz-adv-x="800" 
d="M657 349q0 123 -74 202t-183 79q-110 0 -183.5 -79t-73.5 -202q0 -124 73.5 -202.5t183.5 -78.5q109 0 183 79t74 202zM506 291h83q-11 -71 -59.5 -111.5t-115.5 -40.5q-91 0 -147.5 60.5t-56.5 152.5q0 93 54.5 153t147.5 60q69 0 116.5 -39t57.5 -111h-80
q-7 34 -32.5 52t-61.5 18q-49 0 -76.5 -36t-27.5 -96q0 -57 29.5 -95.5t76.5 -38.5q38 0 63 19t29 53zM39 349q0 149 106 255t255 106t255 -106t106 -255t-106 -255t-255 -106t-255 106t-106 255z" />
    <glyph glyph-name="ordfeminine" unicode="&#xaa;" horiz-adv-x="361" 
d="M333 392h-84l-3 42h-2q-21 -50 -94 -50q-48 0 -85 21.5t-37 66.5q0 36 16 59.5t44.5 34t55 14.5t61.5 4h37q0 38 -18 52t-55 14q-54 0 -105 -31v66q49 25 120 25q76 0 110 -31t34 -105q0 -114 5 -182zM114 477q0 -17 16.5 -25t35.5 -8q36 0 56.5 24.5t20.5 61.5h-30
q-20 0 -32.5 -1t-30.5 -5.5t-27 -16t-9 -30.5z" />
    <glyph glyph-name="guillemotleft" unicode="&#xab;" 
d="M272 269l118 205h126l-110 -205l110 -205h-126zM49 269l118 205h126l-110 -205l110 -205h-126z" />
    <glyph glyph-name="logicalnot" unicode="&#xac;" horiz-adv-x="600" 
d="M450 108v202h-404v104h508v-306h-104z" />
    <glyph glyph-name="registered" unicode="&#xae;" horiz-adv-x="800" 
d="M220 530q0 74 53 127t127 53q75 0 128 -53t53 -127q0 -75 -53 -128t-128 -53q-74 0 -127 53t-53 128zM533 530q0 61 -39 100.5t-94 39.5t-93.5 -39.5t-38.5 -100.5q0 -62 38.5 -101.5t93.5 -39.5t94 39.5t39 101.5zM328 430v201h75q80 0 80 -60q0 -49 -53 -54l53 -87h-44
l-48 85h-20v-85h-43zM371 548h35q34 0 34 27q0 23 -39 23h-30v-50z" />
    <glyph glyph-name="macron" unicode="&#xaf;" horiz-adv-x="278" 
d="M283 624h-288v80h288v-80z" />
    <glyph glyph-name="degree" unicode="&#xb0;" horiz-adv-x="400" 
d="M200 637q-39 0 -63.5 -24.5t-24.5 -63.5t24.5 -63.5t63.5 -24.5t63.5 24.5t24.5 63.5t-24.5 63.5t-63.5 24.5zM200 710q67 0 114 -47t47 -114q0 -68 -46.5 -114.5t-114.5 -46.5q-70 0 -115.5 45.5t-45.5 115.5q0 67 47 114t114 47z" />
    <glyph glyph-name="plusminus" unicode="&#xb1;" horiz-adv-x="600" 
d="M248 374v132h104v-132h202v-104h-202v-133h-104v133h-202v104h202zM46 0v104h508v-104h-508z" />
    <glyph glyph-name="twosuperior" unicode="&#xb2;" horiz-adv-x="361" 
d="M332 282h-302v82q39 14 108 86q76 82 76 122q0 52 -61 52q-57 0 -105 -34l-7 87q61 33 135 33q69 0 111.5 -31.5t42.5 -97.5q0 -55 -61 -125q-57 -63 -108 -86v-2h171v-86z" />
    <glyph glyph-name="threesuperior" unicode="&#xb3;" horiz-adv-x="361" 
d="M46 604l-5 82q69 24 129 24t109.5 -25t49.5 -78q0 -84 -83 -105v-2q42 -3 65.5 -30t23.5 -66q0 -44 -30 -74.5t-69.5 -42t-83.5 -11.5q-61 0 -126 17l5 83q68 -20 108 -20q31 0 55.5 13.5t24.5 37.5q0 49 -73 49q-36 0 -56 -3v84q9 1 28 0t30 -1q25 0 48 12.5t23 35.5
q0 46 -64 46t-109 -26z" />
    <glyph glyph-name="acute" unicode="&#xb4;" horiz-adv-x="278" 
d="M59 591l83 146h137l-137 -146h-83z" />
    <glyph glyph-name="mu" unicode="&#xb5;" horiz-adv-x="611" 
d="M69 -210v725h134v-275q0 -25 0.5 -40t5.5 -38.5t13.5 -36.5t25.5 -23t42 -10q34 0 59 17t37 44.5t17 54.5t5 55v252h134v-515h-127v70h-2q-13 -31 -44 -56.5t-67 -25.5q-66 0 -97 34h-2v-232h-134z" />
    <glyph glyph-name="paragraph" unicode="&#xb6;" horiz-adv-x="620" 
d="M221 -124v465q-103 0 -161 47.5t-58 127.5q0 99 63 140.5t177 41.5h293v-822h-104v742h-106v-742h-104z" />
    <glyph glyph-name="periodcentered" unicode="&#xb7;" horiz-adv-x="278" 
d="M139 207q-34 0 -55.5 21.5t-21.5 55.5t21.5 55.5t55.5 21.5t55.5 -21.5t21.5 -55.5t-21.5 -55.5t-55.5 -21.5z" />
    <glyph glyph-name="cedilla" unicode="&#xb8;" horiz-adv-x="278" 
d="M75 -200l20 54q47 -15 70 -15q53 0 53 35q0 36 -44 36q-17 0 -42 -9l-15 26l59 74h63l-46 -53l2 -2q36 6 41 6q32 0 56 -18t24 -51q0 -53 -37 -78.5t-88 -25.5q-71 0 -116 21z" />
    <glyph glyph-name="onesuperior" unicode="&#xb9;" horiz-adv-x="361" 
d="M12 604l139 100h94v-422h-104v320l-77 -59z" />
    <glyph glyph-name="ordmasculine" unicode="&#xba;" horiz-adv-x="397" 
d="M200 710q74 0 125 -45t51 -117q0 -75 -50.5 -119.5t-126.5 -44.5t-127 45t-51 119q0 73 52.5 117.5t126.5 44.5zM202 650q-43 0 -63 -28.5t-20 -73.5q0 -104 81 -104q78 0 78 104q0 42 -18.5 72t-57.5 30z" />
    <glyph glyph-name="guillemotright" unicode="&#xbb;" 
d="M284 269l-118 -205h-126l110 205l-110 205h126zM507 269l-118 -205h-126l110 205l-110 205h126z" />
    <glyph glyph-name="onequarter" unicode="&#xbc;" horiz-adv-x="834" 
d="M540 159h116v171h-2zM455 79v85l180 258h125v-263h48v-80h-48v-79h-104v79h-201zM164 -22l417 742h82l-417 -742h-82zM20 604l139 100h94v-422h-104v320l-77 -59z" />
    <glyph glyph-name="onehalf" unicode="&#xbd;" horiz-adv-x="834" 
d="M134 -22l417 742h82l-417 -742h-82zM10 603l139 101h94v-422h-104v320l-77 -60zM499 0v82q39 14 108 86q76 82 76 122q0 52 -61 52q-57 0 -105 -34l-7 87q62 33 135 33q69 0 111.5 -31.5t42.5 -97.5q0 -55 -61 -125q-57 -63 -108 -86v-2h171v-86h-302z" />
    <glyph glyph-name="threequarters" unicode="&#xbe;" horiz-adv-x="834" 
d="M668 159v171h-2l-112 -171h114zM772 79v-79h-104v79h-201v85l180 258h125v-263h48v-80h-48zM176 -22l417 742h82l-417 -742h-82zM34 604l-5 82q69 24 129 24t109.5 -25t49.5 -78q0 -84 -83 -105v-2q42 -3 65.5 -30t23.5 -66q0 -44 -30 -74.5t-69.5 -42t-83.5 -11.5
q-61 0 -126 17l5 83q68 -20 114 -20q31 0 55.5 13.5t24.5 37.5q0 49 -79 49q-36 0 -56 -3v84q9 1 28 0t30 -1q29 0 53 12.5t24 35.5q0 46 -70 46q-64 0 -109 -26z" />
    <glyph glyph-name="questiondown" unicode="&#xbf;" horiz-adv-x="500" 
d="M439 -51l11 -111q-77 -33 -198 -33q-62 0 -111.5 17t-83 59t-33.5 103q0 38 18.5 74t45 64.5t52 56.5t41.5 62t13 70h123q0 -106 -73 -187q-6 -6 -21 -22.5t-21 -24.5t-15.5 -21.5t-13 -27t-3.5 -28.5q0 -47 34 -69t81 -22q79 0 154 40zM324 515v-140h-140v140h140z" />
    <glyph glyph-name="Agrave" unicode="&#xc0;" horiz-adv-x="722" 
d="M459 270l-101 288h-2l-101 -288h204zM9 0l272 698h158l274 -698h-155l-60 160h-283l-61 -160h-145zM360 887l83 -146h-83l-137 146h137z" />
    <glyph glyph-name="Aacute" unicode="&#xc1;" horiz-adv-x="722" 
d="M459 270l-101 288h-2l-101 -288h204zM9 0l272 698h158l274 -698h-155l-60 160h-283l-61 -160h-145zM284 741l83 146h137l-137 -146h-83z" />
    <glyph glyph-name="Acircumflex" unicode="&#xc2;" horiz-adv-x="722" 
d="M459 270l-101 288h-2l-101 -288h204zM9 0l272 698h158l274 -698h-155l-60 160h-283l-61 -160h-145zM311 887h101l105 -146h-89l-68 86l-70 -86h-89z" />
    <glyph glyph-name="Atilde" unicode="&#xc3;" horiz-adv-x="722" 
d="M459 270l-101 288h-2l-101 -288h204zM9 0l272 698h158l274 -698h-155l-60 160h-283l-61 -160h-145zM236 749h-54q0 47 29.5 84t72.5 37q29 0 81 -20q6 -2 18 -7.5t18.5 -7.5t16.5 -4.5t20 -2.5q22 0 33 14t11 35h54q0 -52 -26 -86.5t-71 -34.5q-39 0 -86 18
q-47 19 -68 19q-24 0 -36.5 -13.5t-12.5 -30.5z" />
    <glyph glyph-name="Adieresis" unicode="&#xc4;" horiz-adv-x="722" 
d="M459 270l-101 288h-2l-101 -288h204zM9 0l272 698h158l274 -698h-155l-60 160h-283l-61 -160h-145zM404 875h116v-116h-116v116zM314 759h-116v116h116v-116z" />
    <glyph glyph-name="Aring" unicode="&#xc5;" horiz-adv-x="722" 
d="M459 270l-101 288h-2l-101 -288h204zM9 0l272 698h158l274 -698h-155l-60 160h-283l-61 -160h-145zM253 826q0 44 31.5 75.5t75.5 31.5t75 -31.5t31 -75.5t-31 -75t-75 -31t-75.5 31t-31.5 75zM307 826q0 -22 15.5 -37t37.5 -15t37 15t15 37t-15 37.5t-37 15.5
t-37.5 -15.5t-15.5 -37.5z" />
    <glyph glyph-name="AE" unicode="&#xc6;" horiz-adv-x="944" 
d="M503 270l-23 324h-2l-173 -324h198zM9 0l382 698h499v-110h-271l14 -172h235v-110h-223l16 -196h233v-110h-369l-12 160h-268l-86 -160h-150z" />
    <glyph glyph-name="Ccedilla" unicode="&#xc7;" horiz-adv-x="611" 
d="M307 -73l53 67q-146 15 -229.5 102t-83.5 241q0 178 102 275.5t281 97.5q84 0 158 -29l-10 -118q-65 37 -151 37q-106 0 -170 -71.5t-64 -181.5q0 -109 64 -179t173 -70q97 0 153 29l6 -117q-93 -22 -159 -22q-8 0 -12 1l-35 -41l2 -2q36 6 41 6q32 0 56 -18t24 -51
q0 -53 -37 -78.5t-88 -25.5q-71 0 -116 21l20 54q47 -15 70 -15q53 0 53 35q0 36 -44 36q-17 0 -42 -9z" />
    <glyph glyph-name="Egrave" unicode="&#xc8;" 
d="M81 0v698h412v-110h-272v-172h249v-110h-249v-196h274v-110h-414zM302 887l83 -146h-83l-137 146h137z" />
    <glyph glyph-name="Eacute" unicode="&#xc9;" 
d="M81 0v698h412v-110h-272v-172h249v-110h-249v-196h274v-110h-414zM227 741l83 146h137l-137 -146h-83z" />
    <glyph glyph-name="Ecircumflex" unicode="&#xca;" 
d="M81 0v698h412v-110h-272v-172h249v-110h-249v-196h274v-110h-414zM247 887h101l105 -146h-89l-68 86l-70 -86h-89z" />
    <glyph glyph-name="Edieresis" unicode="&#xcb;" 
d="M81 0v698h412v-110h-272v-172h249v-110h-249v-196h274v-110h-414zM332 875h116v-116h-116v116zM242 759h-116v116h116v-116z" />
    <glyph glyph-name="Igrave" unicode="&#xcc;" horiz-adv-x="278" 
d="M69 0v698h140v-698h-140zM136 887l83 -146h-83l-137 146h137z" />
    <glyph glyph-name="Iacute" unicode="&#xcd;" horiz-adv-x="278" 
d="M69 0v698h140v-698h-140zM59 741l83 146h137l-137 -146h-83z" />
    <glyph glyph-name="Icircumflex" unicode="&#xce;" horiz-adv-x="278" 
d="M69 0v698h140v-698h-140zM91 887h101l105 -146h-89l-68 86l-70 -86h-89z" />
    <glyph glyph-name="Idieresis" unicode="&#xcf;" horiz-adv-x="278" 
d="M69 0v698h140v-698h-140zM184 875h116v-116h-116v116zM94 759h-116v116h116v-116z" />
    <glyph glyph-name="Eth" unicode="&#xd0;" horiz-adv-x="722" 
d="M81 0v336h-64v86h64v276h191q403 0 403 -349t-403 -349h-191zM221 336v-226h78q93 0 161.5 65t68.5 174t-68.5 174t-161.5 65h-78v-166h146v-86h-146z" />
    <glyph glyph-name="Ntilde" unicode="&#xd1;" horiz-adv-x="722" 
d="M74 0v698h172l266 -522h2v522h134v-698h-171l-267 522h-2v-522h-134zM251 749h-54q0 47 29.5 84t72.5 37q29 0 81 -20q6 -2 18 -7.5t18.5 -7.5t16.5 -4.5t20 -2.5q22 0 33 14t11 35h54q0 -52 -26 -86.5t-71 -34.5q-39 0 -86 18q-47 19 -68 19q-24 0 -36.5 -13.5
t-12.5 -30.5z" />
    <glyph glyph-name="Ograve" unicode="&#xd2;" horiz-adv-x="778" 
d="M47 351q0 164 89.5 261.5t252.5 97.5q161 0 251.5 -98.5t90.5 -260.5q0 -163 -90 -263t-252 -100q-164 0 -253 99t-89 264zM193 351q0 -67 18.5 -122t64 -93t113.5 -38t113.5 38t64 93t18.5 122q0 103 -49.5 176t-146.5 73t-146.5 -73t-49.5 -176zM386 887l83 -146h-83
l-137 146h137z" />
    <glyph glyph-name="Oacute" unicode="&#xd3;" horiz-adv-x="778" 
d="M47 351q0 164 89.5 261.5t252.5 97.5q161 0 251.5 -98.5t90.5 -260.5q0 -163 -90 -263t-252 -100q-164 0 -253 99t-89 264zM193 351q0 -67 18.5 -122t64 -93t113.5 -38t113.5 38t64 93t18.5 122q0 103 -49.5 176t-146.5 73t-146.5 -73t-49.5 -176zM299 741l83 146h137
l-137 -146h-83z" />
    <glyph glyph-name="Ocircumflex" unicode="&#xd4;" horiz-adv-x="778" 
d="M47 351q0 164 89.5 261.5t252.5 97.5q161 0 251.5 -98.5t90.5 -260.5q0 -163 -90 -263t-252 -100q-164 0 -253 99t-89 264zM193 351q0 -67 18.5 -122t64 -93t113.5 -38t113.5 38t64 93t18.5 122q0 103 -49.5 176t-146.5 73t-146.5 -73t-49.5 -176zM341 887h101l105 -146
h-89l-68 86l-70 -86h-89z" />
    <glyph glyph-name="Otilde" unicode="&#xd5;" horiz-adv-x="778" 
d="M47 351q0 164 89.5 261.5t252.5 97.5q161 0 251.5 -98.5t90.5 -260.5q0 -163 -90 -263t-252 -100q-164 0 -253 99t-89 264zM193 351q0 -67 18.5 -122t64 -93t113.5 -38t113.5 38t64 93t18.5 122q0 103 -49.5 176t-146.5 73t-146.5 -73t-49.5 -176zM266 749h-54
q0 47 29.5 84t72.5 37q29 0 81 -20q6 -2 18 -7.5t18.5 -7.5t16.5 -4.5t20 -2.5q22 0 33 14t11 35h54q0 -52 -26 -86.5t-71 -34.5q-39 0 -86 18q-47 19 -68 19q-24 0 -36.5 -13.5t-12.5 -30.5z" />
    <glyph glyph-name="Odieresis" unicode="&#xd6;" horiz-adv-x="778" 
d="M47 351q0 164 89.5 261.5t252.5 97.5q161 0 251.5 -98.5t90.5 -260.5q0 -163 -90 -263t-252 -100q-164 0 -253 99t-89 264zM193 351q0 -67 18.5 -122t64 -93t113.5 -38t113.5 38t64 93t18.5 122q0 103 -49.5 176t-146.5 73t-146.5 -73t-49.5 -176zM434 875h116v-116h-116
v116zM344 759h-116v116h116v-116z" />
    <glyph glyph-name="multiply" unicode="&#xd7;" horiz-adv-x="600" 
d="M228 253l-162 162l72 72l162 -162l162 162l72 -72l-163 -162l163 -162l-72 -72l-162 163l-162 -163l-72 72z" />
    <glyph glyph-name="Oslash" unicode="&#xd8;" horiz-adv-x="778" 
d="M228 194l281 362q-49 44 -120 44q-97 0 -146.5 -73t-49.5 -176q0 -93 35 -157zM546 509l-282 -363q48 -48 125 -48q68 0 113.5 38t64 93t18.5 122q0 94 -39 158zM641 727l45 -37l-54 -70q99 -97 99 -269q0 -163 -90 -263t-252 -100q-122 0 -204 57l-57 -74l-45 36l59 76
q-95 93 -95 268q0 164 89.5 261.5t252.5 97.5q115 0 198 -53z" />
    <glyph glyph-name="Ugrave" unicode="&#xd9;" horiz-adv-x="722" 
d="M76 252v446h140v-403q0 -197 145 -197t145 197v403h140v-446q0 -264 -285 -264t-285 264zM367 887l83 -146h-83l-137 146h137z" />
    <glyph glyph-name="Uacute" unicode="&#xda;" horiz-adv-x="722" 
d="M76 252v446h140v-403q0 -197 145 -197t145 197v403h140v-446q0 -264 -285 -264t-285 264zM309 741l83 146h137l-137 -146h-83z" />
    <glyph glyph-name="Ucircumflex" unicode="&#xdb;" horiz-adv-x="722" 
d="M76 252v446h140v-403q0 -197 145 -197t145 197v403h140v-446q0 -264 -285 -264t-285 264zM312 887h101l105 -146h-89l-68 86l-70 -86h-89z" />
    <glyph glyph-name="Udieresis" unicode="&#xdc;" horiz-adv-x="722" 
d="M76 252v446h140v-403q0 -197 145 -197t145 197v403h140v-446q0 -264 -285 -264t-285 264zM404 875h116v-116h-116v116zM314 759h-116v116h116v-116z" />
    <glyph glyph-name="Yacute" unicode="&#xdd;" horiz-adv-x="667" 
d="M266 0v276l-255 422h164l165 -293l168 293h148l-250 -422v-276h-140zM274 741l83 146h137l-137 -146h-83z" />
    <glyph glyph-name="Thorn" unicode="&#xde;" 
d="M209 0h-140v698h140v-116h37q291 0 291 -212q0 -115 -73.5 -168t-195.5 -53h-59v-149zM209 472v-213h49q133 0 133 104q0 57 -37 83t-96 26h-49z" />
    <glyph glyph-name="germandbls" unicode="&#xdf;" horiz-adv-x="611" 
d="M206 0h-134v505q0 117 63 187t183 70q91 0 159 -49t68 -135q0 -68 -34 -114t-99 -63v-2q75 -10 122 -61.5t47 -122.5q0 -101 -65.5 -161t-168.5 -60q-24 0 -87 11l4 104q31 -11 70 -11q17 0 33 5t34 17.5t29 40.5t11 68q0 113 -157 113v104q121 0 121 109q0 45 -22.5 74
t-66.5 29q-54 0 -82 -42.5t-28 -99.5v-516z" />
    <glyph glyph-name="agrave" unicode="&#xe0;" 
d="M96 373l-4 115q84 39 179 39q117 0 169.5 -51.5t52.5 -165.5v-66q0 -53 2 -129q1 -53 6 -115h-118q-2 10 -6 77h-2q-23 -41 -67 -65t-92 -24q-73 0 -126.5 41.5t-53.5 111.5q0 104 88 147q61 30 173 30h74q0 61 -27.5 86t-88.5 25q-85 0 -159 -56zM164 149
q0 -32 23.5 -47.5t61.5 -15.5q59 0 94 46q28 37 28 106h-58q-149 0 -149 -89zM285 737l83 -146h-83l-137 146h137z" />
    <glyph glyph-name="aacute" unicode="&#xe1;" 
d="M96 373l-4 115q84 39 179 39q117 0 169.5 -51.5t52.5 -165.5v-66q0 -53 2 -129q1 -53 6 -115h-118q-2 10 -6 77h-2q-23 -41 -67 -65t-92 -24q-73 0 -126.5 41.5t-53.5 111.5q0 104 88 147q61 30 173 30h74q0 61 -27.5 86t-88.5 25q-85 0 -159 -56zM164 149
q0 -32 23.5 -47.5t61.5 -15.5q59 0 94 46q28 37 28 106h-58q-149 0 -149 -89zM208 591l83 146h137l-137 -146h-83z" />
    <glyph glyph-name="acircumflex" unicode="&#xe2;" 
d="M96 373l-4 115q84 39 179 39q117 0 169.5 -51.5t52.5 -165.5v-66q0 -53 2 -129q1 -53 6 -115h-118q-2 10 -6 77h-2q-23 -41 -67 -65t-92 -24q-73 0 -126.5 41.5t-53.5 111.5q0 104 88 147q61 30 173 30h74q0 61 -27.5 86t-88.5 25q-85 0 -159 -56zM164 149
q0 -32 23.5 -47.5t61.5 -15.5q59 0 94 46q28 37 28 106h-58q-149 0 -149 -89zM240 737h101l105 -146h-89l-68 86l-70 -86h-89z" />
    <glyph glyph-name="atilde" unicode="&#xe3;" 
d="M96 373l-4 115q84 39 179 39q117 0 169.5 -51.5t52.5 -165.5v-66q0 -53 2 -129q1 -53 6 -115h-118q-2 10 -6 77h-2q-23 -41 -67 -65t-92 -24q-73 0 -126.5 41.5t-53.5 111.5q0 104 88 147q61 30 173 30h74q0 61 -27.5 86t-88.5 25q-85 0 -159 -56zM164 149
q0 -32 23.5 -47.5t61.5 -15.5q59 0 94 46q28 37 28 106h-58q-149 0 -149 -89zM165 599h-54q0 47 29.5 84t72.5 37q29 0 81 -20q6 -2 18 -7.5t18.5 -7.5t16.5 -4.5t20 -2.5q22 0 33 14t11 35h54q0 -52 -26 -86.5t-71 -34.5q-39 0 -86 18q-48 19 -68 19q-24 0 -36.5 -13.5
t-12.5 -30.5z" />
    <glyph glyph-name="adieresis" unicode="&#xe4;" 
d="M96 373l-4 115q84 39 179 39q117 0 169.5 -51.5t52.5 -165.5v-66q0 -53 2 -129q1 -53 6 -115h-118q-2 10 -6 77h-2q-23 -41 -67 -65t-92 -24q-73 0 -126.5 41.5t-53.5 111.5q0 104 88 147q61 30 173 30h74q0 61 -27.5 86t-88.5 25q-85 0 -159 -56zM164 149
q0 -32 23.5 -47.5t61.5 -15.5q59 0 94 46q28 37 28 106h-58q-149 0 -149 -89zM333 725h116v-116h-116v116zM243 609h-116v116h116v-116z" />
    <glyph glyph-name="aring" unicode="&#xe5;" 
d="M96 373l-4 115q84 39 179 39q117 0 169.5 -51.5t52.5 -165.5v-66q0 -53 2 -129q1 -53 6 -115h-118q-2 10 -6 77h-2q-23 -41 -67 -65t-92 -24q-73 0 -126.5 41.5t-53.5 111.5q0 104 88 147q61 30 173 30h74q0 61 -27.5 86t-88.5 25q-85 0 -159 -56zM164 149
q0 -32 23.5 -47.5t61.5 -15.5q59 0 94 46q28 37 28 106h-58q-149 0 -149 -89zM182 690q0 44 32 75.5t75 31.5q44 0 75 -31.5t31 -75.5t-31 -75t-75 -31t-75.5 31t-31.5 75zM236 690q0 -22 15.5 -37t37.5 -15t37 15t15 37t-15 37.5t-37 15.5q-23 0 -38 -15.5t-15 -37.5z" />
    <glyph glyph-name="ae" unicode="&#xe6;" horiz-adv-x="889" 
d="M499 308h226q0 52 -26.5 86.5t-78.5 34.5q-57 0 -89 -34.5t-32 -86.5zM818 138v-109q-74 -41 -177 -41q-151 0 -216 93q-28 -46 -81 -70.5t-111 -22.5q-83 0 -140 37.5t-57 115.5q0 51 23 87.5t62.5 55t81.5 26.5t91 8h77q0 57 -27 84.5t-92 27.5q-84 0 -159 -57l-4 115
q85 39 183 39q61 0 100 -13t75 -52q62 65 176 65q230 0 230 -311h-354q0 -61 42 -95.5t106 -34.5q78 0 171 52zM164 141q0 -23 20.5 -39t55.5 -16q70 0 100.5 37t30.5 115h-58q-27 0 -50.5 -4t-47 -14t-37.5 -30.5t-14 -48.5z" />
    <glyph glyph-name="ccedilla" unicode="&#xe7;" horiz-adv-x="444" 
d="M177 -73l53 67q-94 17 -144 88.5t-50 177.5q0 116 66 191.5t183 75.5q73 0 130 -17l-12 -106q-41 19 -91 19q-62 0 -99 -45t-37 -118q0 -75 35.5 -121.5t103.5 -46.5q48 0 103 24l6 -111q-55 -17 -134 -17h-2l-35 -40l2 -2q36 6 41 6q32 0 56 -18t24 -51q0 -53 -37 -78.5
t-88 -25.5q-70 0 -116 21l20 54q47 -15 70 -15q53 0 53 35q0 36 -44 36q-17 0 -42 -9z" />
    <glyph glyph-name="egrave" unicode="&#xe8;" 
d="M164 308h228q-3 54 -29.5 87.5t-79.5 33.5q-54 0 -84 -33t-35 -88zM482 138v-109q-74 -41 -177 -41q-128 0 -198.5 70t-70.5 197q0 118 62 195t177 77q70 0 118.5 -22.5t75.5 -66t39 -97.5t12 -125h-356q4 -61 44 -95.5t103 -34.5q78 0 171 52zM315 737l83 -146h-83
l-137 146h137z" />
    <glyph glyph-name="eacute" unicode="&#xe9;" 
d="M164 308h228q-3 54 -29.5 87.5t-79.5 33.5q-54 0 -84 -33t-35 -88zM482 138v-109q-74 -41 -177 -41q-128 0 -198.5 70t-70.5 197q0 118 62 195t177 77q70 0 118.5 -22.5t75.5 -66t39 -97.5t12 -125h-356q4 -61 44 -95.5t103 -34.5q78 0 171 52zM228 591l83 146h137
l-137 -146h-83z" />
    <glyph glyph-name="ecircumflex" unicode="&#xea;" 
d="M164 308h228q-3 54 -29.5 87.5t-79.5 33.5q-54 0 -84 -33t-35 -88zM482 138v-109q-74 -41 -177 -41q-128 0 -198.5 70t-70.5 197q0 118 62 195t177 77q70 0 118.5 -22.5t75.5 -66t39 -97.5t12 -125h-356q4 -61 44 -95.5t103 -34.5q78 0 171 52zM250 737h101l105 -146h-89
l-68 86l-70 -86h-89z" />
    <glyph glyph-name="edieresis" unicode="&#xeb;" 
d="M164 308h228q-3 54 -29.5 87.5t-79.5 33.5q-54 0 -84 -33t-35 -88zM482 138v-109q-74 -41 -177 -41q-128 0 -198.5 70t-70.5 197q0 118 62 195t177 77q70 0 118.5 -22.5t75.5 -66t39 -97.5t12 -125h-356q4 -61 44 -95.5t103 -34.5q78 0 171 52zM343 725h116v-116h-116
v116zM253 609h-116v116h116v-116z" />
    <glyph glyph-name="igrave" unicode="&#xec;" horiz-adv-x="278" 
d="M206 0h-134v515h134v-515zM126 737l83 -146h-83l-137 146h137z" />
    <glyph glyph-name="iacute" unicode="&#xed;" horiz-adv-x="278" 
d="M206 0h-134v515h134v-515zM69 591l83 146h137l-137 -146h-83z" />
    <glyph glyph-name="icircumflex" unicode="&#xee;" horiz-adv-x="278" 
d="M206 0h-134v515h134v-515zM91 737h101l105 -146h-89l-68 86l-70 -86h-89z" />
    <glyph glyph-name="idieresis" unicode="&#xef;" horiz-adv-x="278" 
d="M206 0h-134v515h134v-515zM184 725h116v-116h-116v116zM94 609h-116v116h116v-116z" />
    <glyph glyph-name="eth" unicode="&#xf0;" horiz-adv-x="611" 
d="M307 411q-62 0 -96.5 -49t-34.5 -111q0 -64 32 -111.5t98 -47.5q64 0 95 46t31 113q0 61 -32 110.5t-93 49.5zM145 594l83 54q-49 31 -99 48l61 68q66 -24 127 -59l92 59l51 -47l-83 -53q195 -150 195 -382q0 -142 -69.5 -218t-197.5 -76q-124 0 -196.5 75.5t-72.5 190.5
q-2 108 62 184.5t171 76.5q73 0 123 -32h2q-32 68 -106 124l-92 -60z" />
    <glyph glyph-name="ntilde" unicode="&#xf1;" horiz-adv-x="611" 
d="M69 0v515h127v-70h2q58 82 169 82q88 0 131.5 -55t43.5 -147v-325h-134v275q0 25 -0.5 40t-5.5 38.5t-13.5 36.5t-25.5 23t-42 10q-34 0 -59 -17t-37 -44.5t-17 -54.5t-5 -55v-252h-134zM193 599h-54q0 47 29.5 84t72.5 37q29 0 81 -20q6 -2 18 -7.5t18.5 -7.5t16.5 -4.5
t20 -2.5q22 0 33 14t11 35h54q0 -52 -26 -86.5t-71 -34.5q-39 0 -86 18q-48 19 -68 19q-24 0 -36.5 -13.5t-12.5 -30.5z" />
    <glyph glyph-name="ograve" unicode="&#xf2;" horiz-adv-x="611" 
d="M36 254q0 125 76 199t193 74t193.5 -74t76.5 -199q0 -115 -72.5 -190.5t-197.5 -75.5q-124 0 -196.5 75.5t-72.5 190.5zM176 270q0 -75 29.5 -126.5t99.5 -51.5q37 0 63.5 15.5t40.5 42t20 56t6 64.5q0 64 -34 108.5t-96 44.5t-95.5 -45t-33.5 -108zM293 737l83 -146h-83
l-137 146h137z" />
    <glyph glyph-name="oacute" unicode="&#xf3;" horiz-adv-x="611" 
d="M36 254q0 125 76 199t193 74t193.5 -74t76.5 -199q0 -115 -72.5 -190.5t-197.5 -75.5q-124 0 -196.5 75.5t-72.5 190.5zM176 270q0 -75 29.5 -126.5t99.5 -51.5q37 0 63.5 15.5t40.5 42t20 56t6 64.5q0 64 -34 108.5t-96 44.5t-95.5 -45t-33.5 -108zM236 591l83 146h137
l-137 -146h-83z" />
    <glyph glyph-name="ocircumflex" unicode="&#xf4;" horiz-adv-x="611" 
d="M36 254q0 125 76 199t193 74t193.5 -74t76.5 -199q0 -115 -72.5 -190.5t-197.5 -75.5q-124 0 -196.5 75.5t-72.5 190.5zM176 270q0 -75 29.5 -126.5t99.5 -51.5q37 0 63.5 15.5t40.5 42t20 56t6 64.5q0 64 -34 108.5t-96 44.5t-95.5 -45t-33.5 -108zM258 737h101
l105 -146h-89l-68 86l-70 -86h-89z" />
    <glyph glyph-name="otilde" unicode="&#xf5;" horiz-adv-x="611" 
d="M36 254q0 125 76 199t193 74t193.5 -74t76.5 -199q0 -115 -72.5 -190.5t-197.5 -75.5q-124 0 -196.5 75.5t-72.5 190.5zM176 270q0 -75 29.5 -126.5t99.5 -51.5q37 0 63.5 15.5t40.5 42t20 56t6 64.5q0 64 -34 108.5t-96 44.5t-95.5 -45t-33.5 -108zM183 599h-54
q0 47 29.5 84t72.5 37q29 0 81 -20q6 -2 18 -7.5t18.5 -7.5t16.5 -4.5t20 -2.5q22 0 33 14t11 35h54q0 -52 -26 -86.5t-71 -34.5q-39 0 -86 18q-48 19 -68 19q-24 0 -36.5 -13.5t-12.5 -30.5z" />
    <glyph glyph-name="odieresis" unicode="&#xf6;" horiz-adv-x="611" 
d="M36 254q0 125 76 199t193 74t193.5 -74t76.5 -199q0 -115 -72.5 -190.5t-197.5 -75.5q-124 0 -196.5 75.5t-72.5 190.5zM176 270q0 -75 29.5 -126.5t99.5 -51.5q37 0 63.5 15.5t40.5 42t20 56t6 64.5q0 64 -34 108.5t-96 44.5t-95.5 -45t-33.5 -108zM351 725h116v-116
h-116v116zM261 609h-116v116h116v-116z" />
    <glyph glyph-name="divide" unicode="&#xf7;" horiz-adv-x="600" 
d="M554 201h-508v104h508v-104zM300 529q34 0 55.5 -21.5t21.5 -55.5t-21.5 -55.5t-55.5 -21.5t-55.5 21.5t-21.5 55.5t21.5 55.5t55.5 21.5zM300 -23q-34 0 -55.5 21.5t-21.5 55.5t21.5 55.5t55.5 21.5t55.5 -21.5t21.5 -55.5t-21.5 -55.5t-55.5 -21.5z" />
    <glyph glyph-name="oslash" unicode="&#xf8;" horiz-adv-x="611" 
d="M194 168l190 228q-32 27 -79 27q-62 0 -95.5 -45t-33.5 -108q0 -60 18 -102zM417 354l-193 -232q32 -30 81 -30q37 0 63.5 15.5t40.5 42t20 56t6 64.5q0 46 -18 84zM513 550l40 -33l-54 -65q76 -74 76 -198q0 -115 -72.5 -190.5t-197.5 -75.5q-89 0 -157 43l-55 -66
l-41 33l56 67q-72 72 -72 189q0 125 76 199t193 74q87 0 154 -42z" />
    <glyph glyph-name="ugrave" unicode="&#xf9;" horiz-adv-x="611" 
d="M542 515v-515h-127v70h-2q-67 -82 -169 -82q-88 0 -131.5 55t-43.5 147v325h134v-275q0 -25 0.5 -40t5.5 -38.5t13.5 -36.5t25.5 -23t42 -10q34 0 59 17t37 44.5t17 54.5t5 55v252h134zM293 737l83 -146h-83l-137 146h137z" />
    <glyph glyph-name="uacute" unicode="&#xfa;" horiz-adv-x="611" 
d="M542 515v-515h-127v70h-2q-67 -82 -169 -82q-88 0 -131.5 55t-43.5 147v325h134v-275q0 -25 0.5 -40t5.5 -38.5t13.5 -36.5t25.5 -23t42 -10q34 0 59 17t37 44.5t17 54.5t5 55v252h134zM236 591l83 146h137l-137 -146h-83z" />
    <glyph glyph-name="ucircumflex" unicode="&#xfb;" horiz-adv-x="611" 
d="M542 515v-515h-127v70h-2q-67 -82 -169 -82q-88 0 -131.5 55t-43.5 147v325h134v-275q0 -25 0.5 -40t5.5 -38.5t13.5 -36.5t25.5 -23t42 -10q34 0 59 17t37 44.5t17 54.5t5 55v252h134zM258 737h101l105 -146h-89l-68 86l-70 -86h-89z" />
    <glyph glyph-name="udieresis" unicode="&#xfc;" horiz-adv-x="611" 
d="M542 515v-515h-127v70h-2q-67 -82 -169 -82q-88 0 -131.5 55t-43.5 147v325h134v-275q0 -25 0.5 -40t5.5 -38.5t13.5 -36.5t25.5 -23t42 -10q34 0 59 17t37 44.5t17 54.5t5 55v252h134zM351 725h116v-116h-116v116zM261 609h-116v116h116v-116z" />
    <glyph glyph-name="yacute" unicode="&#xfd;" 
d="M159 515l124 -376h2l124 376h136l-193 -511l-9 -24q-13 -35 -20 -52.5t-21 -46t-27.5 -43t-33.5 -30.5t-45.5 -23t-57.5 -7q-47 0 -95 14l9 99q26 -9 69 -9q40 0 63.5 25t23.5 67l-197 541h148zM208 591l83 146h137l-137 -146h-83z" />
    <glyph glyph-name="thorn" unicode="&#xfe;" horiz-adv-x="611" 
d="M69 -210v960h134v-302h2q47 79 154 79q111 0 163.5 -75.5t52.5 -192.5q0 -75 -20 -133.5t-70.5 -98t-125.5 -39.5q-99 0 -154 70h-2v-268h-134zM324 423q-59 0 -89.5 -50.5t-30.5 -113.5q0 -65 28.5 -116t89.5 -51q41 0 68 28t36 63.5t9 75.5q0 39 -9 73.5t-35 62.5
t-67 28z" />
    <glyph glyph-name="ydieresis" unicode="&#xff;" 
d="M159 515l124 -376h2l124 376h136l-193 -511l-9 -24q-13 -35 -20 -52.5t-21 -46t-27.5 -43t-33.5 -30.5t-45.5 -23t-57.5 -7q-47 0 -95 14l9 99q26 -9 69 -9q40 0 63.5 25t23.5 67l-197 541h148zM333 725h116v-116h-116v116zM243 609h-116v116h116v-116z" />
    <glyph glyph-name="Amacron" unicode="&#x100;" horiz-adv-x="722" 
d="M459 270l-101 288h-2l-101 -288h204zM9 0l272 698h158l274 -698h-155l-60 160h-283l-61 -160h-145zM503 774h-288v80h288v-80z" />
    <glyph glyph-name="amacron" unicode="&#x101;" 
d="M96 373l-4 115q84 39 179 39q117 0 169.5 -51.5t52.5 -165.5v-66q0 -53 2 -129q1 -53 6 -115h-118q-2 10 -6 77h-2q-23 -41 -67 -65t-92 -24q-73 0 -126.5 41.5t-53.5 111.5q0 104 88 147q61 30 173 30h74q0 61 -27.5 86t-88.5 25q-85 0 -159 -56zM164 149
q0 -32 23.5 -47.5t61.5 -15.5q59 0 94 46q28 37 28 106h-58q-149 0 -149 -89zM432 624h-288v80h288v-80z" />
    <glyph glyph-name="Abreve" unicode="&#x102;" horiz-adv-x="722" 
d="M459 270l-101 288h-2l-101 -288h204zM9 0l272 698h158l274 -698h-155l-60 160h-283l-61 -160h-145zM196 890h62q8 -38 34 -59t66 -21q83 0 102 80h62q-4 -67 -50 -109.5t-114 -42.5q-67 0 -113 42.5t-49 109.5z" />
    <glyph glyph-name="abreve" unicode="&#x103;" 
d="M96 373l-4 115q84 39 179 39q117 0 169.5 -51.5t52.5 -165.5v-66q0 -53 2 -129q1 -53 6 -115h-118q-2 10 -6 77h-2q-23 -41 -67 -65t-92 -24q-73 0 -126.5 41.5t-53.5 111.5q0 104 88 147q61 30 173 30h74q0 61 -27.5 86t-88.5 25q-85 0 -159 -56zM164 149
q0 -32 23.5 -47.5t61.5 -15.5q59 0 94 46q28 37 28 106h-58q-149 0 -149 -89zM125 740h62q8 -38 34 -59t66 -21q83 0 102 80h62q-4 -67 -50 -109.5t-114 -42.5q-67 0 -113 42.5t-49 109.5z" />
    <glyph glyph-name="Aogonek" unicode="&#x104;" horiz-adv-x="722" 
d="M459 270l-101 288h-2l-101 -288h204zM9 0l272 698h158l274 -698h-82q-82 -63 -82 -122q0 -45 41 -45q31 0 56 33l40 -8q-20 -41 -48 -60t-77 -19q-45 0 -71.5 23t-26.5 67q0 28 15.5 52t47.5 51l32 28l-60 160h-283l-61 -160h-145z" />
    <glyph glyph-name="aogonek" unicode="&#x105;" 
d="M164 149q0 -32 23.5 -47.5t61.5 -15.5q59 0 94 46q28 37 28 106h-58q-149 0 -149 -89zM96 373l-4 115q84 39 179 39q117 0 169.5 -51.5t52.5 -165.5v-66q0 -53 2 -129q1 -53 6 -115h-55q-82 -63 -82 -122q0 -45 41 -45q31 0 56 33l40 -8q-20 -41 -48 -60t-77 -19
q-45 0 -71.5 23t-26.5 67q0 22 11 42.5t31 37.5t36.5 28t39.5 23h-13q-2 10 -6 77h-2q-23 -41 -67 -65t-92 -24q-73 0 -126.5 41.5t-53.5 111.5q0 104 88 147q61 30 173 30h74q0 61 -27.5 86t-88.5 25q-85 0 -159 -56z" />
    <glyph glyph-name="Cacute" unicode="&#x106;" horiz-adv-x="611" 
d="M583 127l6 -117q-93 -22 -159 -22q-176 0 -279.5 88.5t-103.5 260.5q0 178 102 275.5t281 97.5q84 0 158 -29l-10 -118q-65 37 -151 37q-106 0 -170 -71.5t-64 -181.5q0 -109 64 -179t173 -70q97 0 153 29zM349 741l83 146h137l-137 -146h-83z" />
    <glyph glyph-name="cacute" unicode="&#x107;" horiz-adv-x="444" 
d="M415 510l-12 -106q-41 19 -91 19q-62 0 -99 -45t-37 -118q0 -75 35.5 -121.5t103.5 -46.5q48 0 103 24l6 -111q-55 -17 -134 -17q-123 0 -188.5 75t-65.5 197q0 116 66 191.5t183 75.5q73 0 130 -17zM221 591l83 146h137l-137 -146h-83z" />
    <glyph glyph-name="Ccaron" unicode="&#x10c;" horiz-adv-x="611" 
d="M583 127l6 -117q-93 -22 -159 -22q-176 0 -279.5 88.5t-103.5 260.5q0 178 102 275.5t281 97.5q84 0 158 -29l-10 -118q-65 37 -151 37q-106 0 -170 -71.5t-64 -181.5q0 -109 64 -179t173 -70q97 0 153 29zM472 741h-101l-110 146h89l70 -86l68 86h89z" />
    <glyph glyph-name="ccaron" unicode="&#x10d;" horiz-adv-x="444" 
d="M415 510l-12 -106q-41 19 -91 19q-62 0 -99 -45t-37 -118q0 -75 35.5 -121.5t103.5 -46.5q48 0 103 24l6 -111q-55 -17 -134 -17q-123 0 -188.5 75t-65.5 197q0 116 66 191.5t183 75.5q73 0 130 -17zM341 591h-101l-110 146h89l70 -86l68 86h89z" />
    <glyph glyph-name="Dcaron" unicode="&#x10e;" horiz-adv-x="722" 
d="M81 0v698h191q403 0 403 -349t-403 -349h-191zM221 588v-478h78q93 0 161.5 65t68.5 174t-68.5 174t-161.5 65h-78zM392 741h-101l-110 146h89l70 -86l68 86h89z" />
    <glyph glyph-name="dcaron" unicode="&#x10f;" horiz-adv-x="682" 
d="M176 259q0 -40 9 -75.5t36 -63.5t68 -28q61 0 89.5 51t28.5 116q0 63 -30.5 113.5t-89.5 50.5q-41 0 -67 -28t-35 -62.5t-9 -73.5zM412 0v58h-2q-56 -70 -158 -70q-75 0 -125.5 39.5t-70.5 98t-20 133.5q0 117 52.5 192.5t163.5 75.5q95 0 154 -72h2v295h134v-750h-130z
M592 649v101h116v-77q0 -117 -120 -117v41q25 0 43.5 13.5t20.5 38.5h-60z" />
    <glyph glyph-name="Dcroat" unicode="&#x110;" horiz-adv-x="722" 
d="M81 0v336h-64v86h64v276h191q403 0 403 -349t-403 -349h-191zM221 336v-226h78q93 0 161.5 65t68.5 174t-68.5 174t-161.5 65h-78v-166h146v-86h-146z" />
    <glyph glyph-name="dcroat" unicode="&#x111;" horiz-adv-x="611" 
d="M176 259q0 -40 9 -75.5t36 -63.5t68 -28q61 0 89.5 51t28.5 116q0 63 -30.5 113.5t-89.5 50.5q-41 0 -67 -28t-35 -62.5t-9 -73.5zM255 594v80h153v76h134v-76h51v-80h-51v-594h-130v58h-2q-56 -70 -158 -70q-75 0 -125.5 39.5t-70.5 98t-20 133.5q0 117 52.5 192.5
t163.5 75.5q95 0 154 -72h2v139h-153z" />
    <glyph glyph-name="Emacron" unicode="&#x112;" 
d="M81 0v698h412v-110h-272v-172h249v-110h-249v-196h274v-110h-414zM433 774h-288v80h288v-80z" />
    <glyph glyph-name="emacron" unicode="&#x113;" 
d="M164 308h228q-3 54 -29.5 87.5t-79.5 33.5q-54 0 -84 -33t-35 -88zM482 138v-109q-74 -41 -177 -41q-128 0 -198.5 70t-70.5 197q0 118 62 195t177 77q70 0 118.5 -22.5t75.5 -66t39 -97.5t12 -125h-356q4 -61 44 -95.5t103 -34.5q78 0 171 52zM442 624h-288v80h288v-80z
" />
    <glyph glyph-name="Edotaccent" unicode="&#x116;" 
d="M81 0v698h412v-110h-272v-172h249v-110h-249v-196h274v-110h-414zM347 759h-116v116h116v-116z" />
    <glyph glyph-name="edotaccent" unicode="&#x117;" 
d="M164 308h228q-3 54 -29.5 87.5t-79.5 33.5q-54 0 -84 -33t-35 -88zM482 138v-109q-74 -41 -177 -41q-128 0 -198.5 70t-70.5 197q0 118 62 195t177 77q70 0 118.5 -22.5t75.5 -66t39 -97.5t12 -125h-356q4 -61 44 -95.5t103 -34.5q78 0 171 52zM356 609h-116v116h116
v-116z" />
    <glyph glyph-name="Eogonek" unicode="&#x118;" 
d="M81 0v698h412v-110h-272v-172h249v-110h-249v-196h274v-110h-57q-82 -63 -82 -122q0 -45 41 -45q31 0 56 33l40 -8q-20 -41 -48 -60t-77 -19q-45 0 -71.5 23t-26.5 67q0 22 11 42.5t31 37.5t36.5 28t39.5 23h-307z" />
    <glyph glyph-name="eogonek" unicode="&#x119;" 
d="M164 308h228q-3 54 -29.5 87.5t-79.5 33.5q-54 0 -84 -33t-35 -88zM482 138v-109q-38 -20 -73 -28q-83 -64 -83 -123q0 -45 41 -45q31 0 56 33l40 -8q-20 -41 -48 -60t-77 -19q-45 0 -71.5 23t-26.5 67q0 65 101 121q-12 -2 -36 -2q-128 0 -198.5 70t-70.5 197
q0 118 62 195t177 77q70 0 118.5 -22.5t75.5 -66t39 -97.5t12 -125h-356q4 -61 44 -95.5t103 -34.5q78 0 171 52z" />
    <glyph glyph-name="Ecaron" unicode="&#x11a;" 
d="M81 0v698h412v-110h-272v-172h249v-110h-249v-196h274v-110h-414zM351 741h-101l-110 146h89l70 -86l68 86h89z" />
    <glyph glyph-name="ecaron" unicode="&#x11b;" 
d="M164 308h228q-3 54 -29.5 87.5t-79.5 33.5q-54 0 -84 -33t-35 -88zM482 138v-109q-74 -41 -177 -41q-128 0 -198.5 70t-70.5 197q0 118 62 195t177 77q70 0 118.5 -22.5t75.5 -66t39 -97.5t12 -125h-356q4 -61 44 -95.5t103 -34.5q78 0 171 52zM351 591h-101l-110 146h89
l70 -86l68 86h89z" />
    <glyph glyph-name="Gbreve" unicode="&#x11e;" horiz-adv-x="722" 
d="M635 681l-9 -118q-80 37 -180 37q-119 0 -186 -71t-67 -182q0 -109 64 -179t173 -70q52 0 92 10v182h-148v110h282v-376q-133 -36 -226 -36q-176 0 -279.5 88.5t-103.5 260.5q0 178 102 275.5t281 97.5q108 0 205 -29zM266 890h62q8 -38 34 -59t66 -21q83 0 102 80h62
q-4 -67 -50 -109.5t-114 -42.5q-67 0 -113 42.5t-49 109.5z" />
    <glyph glyph-name="gbreve" unicode="&#x11f;" horiz-adv-x="611" 
d="M290 104q60 0 89 44.5t29 114.5t-28 115t-84 45q-63 0 -91.5 -47.5t-28.5 -115.5q0 -59 30 -107.5t84 -48.5zM414 515h128v-465q0 -272 -272 -272q-95 0 -178 35l11 114q33 -18 76.5 -31.5t73.5 -13.5q43 0 73 13t45.5 31t24.5 48t10.5 52.5t1.5 55.5h-2
q-20 -35 -63 -58.5t-97 -23.5q-107 0 -158.5 73.5t-51.5 186.5q0 66 21.5 124.5t72.5 100.5t124 42q107 0 158 -82h2v70zM143 740h62q8 -38 34 -59t66 -21q83 0 102 80h62q-4 -67 -50 -109.5t-114 -42.5q-67 0 -113 42.5t-49 109.5z" />
    <glyph glyph-name="Gcommaaccent" unicode="&#x122;" horiz-adv-x="722" 
d="M635 681l-9 -118q-80 37 -180 37q-119 0 -186 -71t-67 -182q0 -109 64 -179t173 -70q52 0 92 10v182h-148v110h282v-376q-133 -36 -226 -36q-176 0 -279.5 88.5t-103.5 260.5q0 178 102 275.5t281 97.5q108 0 205 -29zM342 -145v101h116v-77q0 -117 -120 -117v41
q25 0 43.5 13.5t20.5 38.5h-60z" />
    <glyph glyph-name="gcommaaccent" unicode="&#x123;" horiz-adv-x="611" 
d="M290 104q60 0 89 44.5t29 114.5t-28 115t-84 45q-63 0 -91.5 -47.5t-28.5 -115.5q0 -59 30 -107.5t84 -48.5zM414 515h128v-465q0 -272 -272 -272q-95 0 -178 35l11 114q33 -18 76.5 -31.5t73.5 -13.5q43 0 73 13t45.5 31t24.5 48t10.5 52.5t1.5 55.5h-2
q-20 -35 -63 -58.5t-97 -23.5q-107 0 -158.5 73.5t-51.5 186.5q0 66 21.5 124.5t72.5 100.5t124 42q107 0 158 -82h2v70zM377 692v-101h-116v77q0 117 120 117v-41q-25 0 -43.5 -13.5t-20.5 -38.5h60z" />
    <glyph glyph-name="Imacron" unicode="&#x12a;" horiz-adv-x="278" 
d="M69 0v698h140v-698h-140zM283 774h-288v80h288v-80z" />
    <glyph glyph-name="imacron" unicode="&#x12b;" horiz-adv-x="278" 
d="M206 0h-134v515h134v-515zM283 624h-288v80h288v-80z" />
    <glyph glyph-name="Iogonek" unicode="&#x12e;" horiz-adv-x="278" 
d="M69 0v698h140v-698h-40q-82 -63 -82 -122q0 -45 41 -45q31 0 56 33l40 -8q-20 -41 -48 -60t-77 -19q-45 0 -71.5 23t-26.5 67q0 22 11 42.5t31 37.5t36.5 28t39.5 23h-50z" />
    <glyph glyph-name="iogonek" unicode="&#x12f;" horiz-adv-x="278" 
d="M72 609v128h134v-128h-134zM72 0v515h134v-515h-37q-82 -63 -82 -122q0 -45 41 -45q31 0 56 33l40 -8q-20 -41 -48 -60t-77 -19q-45 0 -71.5 23t-26.5 67q0 22 11 42.5t31 37.5t36.5 28t39.5 23h-47z" />
    <glyph glyph-name="Idotaccent" unicode="&#x130;" horiz-adv-x="278" 
d="M69 0v698h140v-698h-140zM197 759h-116v116h116v-116z" />
    <glyph glyph-name="dotlessi" unicode="&#x131;" horiz-adv-x="278" 
d="M206 0h-134v515h134v-515z" />
    <glyph glyph-name="Kcommaaccent" unicode="&#x136;" horiz-adv-x="667" 
d="M81 0v698h140v-300l252 300h172l-287 -329l299 -369h-183l-251 324h-2v-324h-140zM275 -145v101h116v-77q0 -117 -120 -117v41q25 0 43.5 13.5t20.5 38.5h-60z" />
    <glyph glyph-name="kcommaaccent" unicode="&#x137;" 
d="M72 0v750h134v-441h2l160 206h158l-192 -230l216 -285h-170l-172 250h-2v-250h-134zM219 -145v101h116v-77q0 -117 -120 -117v41q25 0 43.5 13.5t20.5 38.5h-60z" />
    <glyph glyph-name="Lacute" unicode="&#x139;" horiz-adv-x="500" 
d="M81 0v698h140v-588h271v-110h-411zM81 741l83 146h137l-137 -146h-83z" />
    <glyph glyph-name="lacute" unicode="&#x13a;" horiz-adv-x="278" 
d="M72 0v750h134v-750h-134zM69 785l83 146h137l-137 -146h-83z" />
    <glyph glyph-name="Lcommaaccent" unicode="&#x13b;" horiz-adv-x="500" 
d="M81 0v698h140v-588h271v-110h-411zM231 -145v101h116v-77q0 -117 -120 -117v41q25 0 43.5 13.5t20.5 38.5h-60z" />
    <glyph glyph-name="lcommaaccent" unicode="&#x13c;" horiz-adv-x="278" 
d="M72 0v750h134v-750h-134zM80 -145v101h116v-77q0 -117 -120 -117v41q25 0 43.5 13.5t20.5 38.5h-60z" />
    <glyph glyph-name="Lcaron" unicode="&#x13d;" horiz-adv-x="500" 
d="M81 0v698h140v-588h271v-110h-411zM300 597v101h116v-77q0 -117 -120 -117v41q25 0 43.5 13.5t20.5 38.5h-60z" />
    <glyph glyph-name="lcaron" unicode="&#x13e;" horiz-adv-x="346" 
d="M72 0v750h134v-750h-134zM256 649v101h116v-77q0 -117 -120 -117v41q25 0 43.5 13.5t20.5 38.5h-60z" />
    <glyph glyph-name="Lslash" unicode="&#x141;" horiz-adv-x="500" 
d="M81 0v243l-73 -44v92l73 44v363h140v-280l168 100v-92l-168 -100v-216h271v-110h-411z" />
    <glyph glyph-name="lslash" unicode="&#x142;" horiz-adv-x="278" 
d="M72 0v293l-72 -43v92l72 43v365h134v-285l72 43v-92l-72 -43v-373h-134z" />
    <glyph glyph-name="Nacute" unicode="&#x143;" horiz-adv-x="722" 
d="M74 0v698h172l266 -522h2v522h134v-698h-171l-267 522h-2v-522h-134zM299 741l83 146h137l-137 -146h-83z" />
    <glyph glyph-name="nacute" unicode="&#x144;" horiz-adv-x="611" 
d="M69 0v515h127v-70h2q58 82 169 82q88 0 131.5 -55t43.5 -147v-325h-134v275q0 25 -0.5 40t-5.5 38.5t-13.5 36.5t-25.5 23t-42 10q-34 0 -59 -17t-37 -44.5t-17 -54.5t-5 -55v-252h-134zM236 591l83 146h137l-137 -146h-83z" />
    <glyph glyph-name="Ncommaaccent" unicode="&#x145;" horiz-adv-x="722" 
d="M74 0v698h172l266 -522h2v522h134v-698h-171l-267 522h-2v-522h-134zM302 -145v101h116v-77q0 -117 -120 -117v41q25 0 43.5 13.5t20.5 38.5h-60z" />
    <glyph glyph-name="ncommaaccent" unicode="&#x146;" horiz-adv-x="611" 
d="M69 0v515h127v-70h2q58 82 169 82q88 0 131.5 -55t43.5 -147v-325h-134v275q0 25 -0.5 40t-5.5 38.5t-13.5 36.5t-25.5 23t-42 10q-34 0 -59 -17t-37 -44.5t-17 -54.5t-5 -55v-252h-134zM253 -145v101h116v-77q0 -117 -120 -117v41q25 0 43.5 13.5t20.5 38.5h-60z" />
    <glyph glyph-name="Ncaron" unicode="&#x147;" horiz-adv-x="722" 
d="M74 0v698h172l266 -522h2v522h134v-698h-171l-267 522h-2v-522h-134zM432 741h-101l-110 146h89l70 -86l68 86h89z" />
    <glyph glyph-name="ncaron" unicode="&#x148;" horiz-adv-x="611" 
d="M69 0v515h127v-70h2q58 82 169 82q88 0 131.5 -55t43.5 -147v-325h-134v275q0 25 -0.5 40t-5.5 38.5t-13.5 36.5t-25.5 23t-42 10q-34 0 -59 -17t-37 -44.5t-17 -54.5t-5 -55v-252h-134zM374 591h-101l-110 146h89l70 -86l68 86h89z" />
    <glyph glyph-name="Omacron" unicode="&#x14c;" horiz-adv-x="778" 
d="M47 351q0 164 89.5 261.5t252.5 97.5q161 0 251.5 -98.5t90.5 -260.5q0 -163 -90 -263t-252 -100q-164 0 -253 99t-89 264zM193 351q0 -67 18.5 -122t64 -93t113.5 -38t113.5 38t64 93t18.5 122q0 103 -49.5 176t-146.5 73t-146.5 -73t-49.5 -176zM533 774h-288v80h288
v-80z" />
    <glyph glyph-name="omacron" unicode="&#x14d;" horiz-adv-x="611" 
d="M36 254q0 125 76 199t193 74t193.5 -74t76.5 -199q0 -115 -72.5 -190.5t-197.5 -75.5q-124 0 -196.5 75.5t-72.5 190.5zM176 270q0 -75 29.5 -126.5t99.5 -51.5q37 0 63.5 15.5t40.5 42t20 56t6 64.5q0 64 -34 108.5t-96 44.5t-95.5 -45t-33.5 -108zM450 624h-288v80h288
v-80z" />
    <glyph glyph-name="Ohungarumlaut" unicode="&#x150;" horiz-adv-x="778" 
d="M47 351q0 164 89.5 261.5t252.5 97.5q161 0 251.5 -98.5t90.5 -260.5q0 -163 -90 -263t-252 -100q-164 0 -253 99t-89 264zM193 351q0 -67 18.5 -122t64 -93t113.5 -38t113.5 38t64 93t18.5 122q0 103 -49.5 176t-146.5 73t-146.5 -73t-49.5 -176zM230 740l83 146h137
l-137 -146h-83zM427 741l83 146h137l-137 -146h-83z" />
    <glyph glyph-name="ohungarumlaut" unicode="&#x151;" horiz-adv-x="611" 
d="M36 254q0 125 76 199t193 74t193.5 -74t76.5 -199q0 -115 -72.5 -190.5t-197.5 -75.5q-124 0 -196.5 75.5t-72.5 190.5zM176 270q0 -75 29.5 -126.5t99.5 -51.5q37 0 63.5 15.5t40.5 42t20 56t6 64.5q0 64 -34 108.5t-96 44.5t-95.5 -45t-33.5 -108zM127 590l83 146h137
l-137 -146h-83zM324 591l83 146h137l-137 -146h-83z" />
    <glyph glyph-name="OE" unicode="&#x152;" horiz-adv-x="944" 
d="M490 110v478q-42 6 -74 6q-105 0 -164 -67.5t-59 -181.5q0 -107 59.5 -173.5t167.5 -67.5q30 0 70 6zM890 698v-110h-260v-172h238v-110h-238v-196h264v-110h-265q-57 0 -112 -3q-111 -3 -112 -3q-358 0 -358 351q0 176 100.5 267.5t275.5 91.5q52 0 103 -3
q102 -3 103 -3h261z" />
    <glyph glyph-name="oe" unicode="&#x153;" horiz-adv-x="944" 
d="M176 257q0 -45 11 -81.5t41.5 -63t76.5 -26.5q69 0 101 48.5t32 120.5q0 73 -32 123.5t-101 50.5q-63 0 -96 -52.5t-33 -119.5zM908 216h-336q1 -64 40.5 -97t102.5 -33q83 0 153 51l4 -109q-68 -40 -161 -40q-154 0 -209 85q-61 -85 -197 -85q-124 0 -196.5 75.5
t-72.5 190.5q0 125 76 199t193 74q128 0 192 -88q29 43 77 65.5t103 22.5q231 0 231 -311zM572 308h208q-2 53 -26.5 87t-75.5 34q-49 0 -77.5 -36t-28.5 -85z" />
    <glyph glyph-name="Racute" unicode="&#x154;" horiz-adv-x="611" 
d="M209 588v-188h46q30 0 53 3t46.5 12.5t36 30t12.5 51.5q0 30 -12.5 49.5t-36.5 28t-45.5 11t-53.5 2.5h-46zM69 0v698h151h11q37 0 56.5 -0.5t54.5 -2.5t55 -7t47.5 -13.5t43.5 -22.5t31.5 -33.5t22.5 -47t7 -62.5q0 -63 -39 -108t-105 -54v-2q43 -3 74 -72l112 -273
h-156l-84 218q-16 41 -35.5 56.5t-61.5 15.5h-45v-290h-140zM223 741l83 146h137l-137 -146h-83z" />
    <glyph glyph-name="racute" unicode="&#x155;" horiz-adv-x="389" 
d="M72 0v515h119v-117h2q5 42 45.5 85.5t95.5 43.5q27 0 41 -4v-135q-19 11 -60 11q-26 0 -45.5 -9.5t-31 -29t-18.5 -38t-10 -47t-3.5 -44.5t-0.5 -42v-189h-134zM135 591l83 146h137l-137 -146h-83z" />
    <glyph glyph-name="Rcommaaccent" unicode="&#x156;" horiz-adv-x="611" 
d="M209 588v-188h46q30 0 53 3t46.5 12.5t36 30t12.5 51.5q0 30 -12.5 49.5t-36.5 28t-45.5 11t-53.5 2.5h-46zM69 0v698h151h11q37 0 56.5 -0.5t54.5 -2.5t55 -7t47.5 -13.5t43.5 -22.5t31.5 -33.5t22.5 -47t7 -62.5q0 -63 -39 -108t-105 -54v-2q43 -3 74 -72l112 -273
h-156l-84 218q-16 41 -35.5 56.5t-61.5 15.5h-45v-290h-140zM252 -145v101h116v-77q0 -117 -120 -117v41q25 0 43.5 13.5t20.5 38.5h-60z" />
    <glyph glyph-name="rcommaaccent" unicode="&#x157;" horiz-adv-x="389" 
d="M72 0v515h119v-117h2q5 42 45.5 85.5t95.5 43.5q27 0 41 -4v-135q-19 11 -60 11q-26 0 -45.5 -9.5t-31 -29t-18.5 -38t-10 -47t-3.5 -44.5t-0.5 -42v-189h-134zM80 -145v101h116v-77q0 -117 -120 -117v41q25 0 43.5 13.5t20.5 38.5h-60z" />
    <glyph glyph-name="Rcaron" unicode="&#x158;" horiz-adv-x="611" 
d="M209 588v-188h46q30 0 53 3t46.5 12.5t36 30t12.5 51.5q0 30 -12.5 49.5t-36.5 28t-45.5 11t-53.5 2.5h-46zM69 0v698h151h11q37 0 56.5 -0.5t54.5 -2.5t55 -7t47.5 -13.5t43.5 -22.5t31.5 -33.5t22.5 -47t7 -62.5q0 -63 -39 -108t-105 -54v-2q43 -3 74 -72l112 -273
h-156l-84 218q-16 41 -35.5 56.5t-61.5 15.5h-45v-290h-140zM347 741h-101l-110 146h89l70 -86l68 86h89z" />
    <glyph glyph-name="rcaron" unicode="&#x159;" horiz-adv-x="389" 
d="M72 0v515h119v-117h2q5 42 45.5 85.5t95.5 43.5q27 0 41 -4v-135q-19 11 -60 11q-26 0 -45.5 -9.5t-31 -29t-18.5 -38t-10 -47t-3.5 -44.5t-0.5 -42v-189h-134zM268 591h-101l-110 146h89l70 -86l68 86h89z" />
    <glyph glyph-name="Sacute" unicode="&#x15a;" 
d="M469 685l-13 -115q-69 30 -142 30q-44 0 -77 -22.5t-33 -74.5q0 -33 31.5 -55t76.5 -38t90 -37t76.5 -65t31.5 -109q0 -108 -73.5 -159.5t-188.5 -51.5q-36 0 -68.5 4t-47 7.5t-63.5 15.5l13 126q79 -43 158 -43q46 0 85 23.5t39 66.5q0 36 -31.5 60t-76.5 40.5t-90 37.5
t-76.5 64t-31.5 107q0 109 70.5 161t173.5 52q92 0 167 -25zM229 741l83 146h137l-137 -146h-83z" />
    <glyph glyph-name="sacute" unicode="&#x15b;" horiz-adv-x="444" 
d="M384 508l-9 -101q-64 22 -120 22q-32 0 -55.5 -13.5t-23.5 -43.5q0 -22 24 -35.5t58 -23t68.5 -24t58.5 -48t24 -85.5q0 -84 -62.5 -126t-153.5 -42q-69 0 -152 22l8 110q68 -34 132 -34q33 0 60.5 14.5t27.5 48.5q0 23 -17.5 38t-43 21.5t-56 17.5t-56 24t-43 43
t-17.5 74q0 79 58.5 119.5t143.5 40.5q57 0 146 -19zM162 591l83 146h137l-137 -146h-83z" />
    <glyph glyph-name="Scedilla" unicode="&#x15e;" 
d="M196 -73l49 61q-69 0 -162 23q-9 3 -14 4l13 126q79 -43 158 -43q46 0 85 23.5t39 66.5q0 36 -31.5 60t-76.5 40.5t-90 37.5t-76.5 64t-31.5 107q0 109 70.5 161t173.5 52q92 0 167 -25l-13 -115q-69 30 -142 30q-44 0 -77 -22.5t-33 -74.5q0 -33 31.5 -55t76.5 -38
t90 -37t76.5 -65t31.5 -109q0 -92 -54.5 -143t-144.5 -63l-39 -45l2 -2q36 6 41 6q32 0 56 -18t24 -51q0 -53 -37 -78.5t-88 -25.5q-70 0 -116 21l20 54q48 -15 70 -15q53 0 53 35q0 36 -44 36q-17 0 -42 -9z" />
    <glyph glyph-name="scedilla" unicode="&#x15f;" horiz-adv-x="444" 
d="M125 -73l49 62q-56 1 -133 21l8 110q68 -34 132 -34q33 0 60.5 14.5t27.5 48.5q0 23 -17.5 38t-43 21.5t-56 17.5t-56 24t-43 43t-17.5 74q0 79 58.5 119.5t143.5 40.5q57 0 146 -19l-9 -101q-64 22 -120 22q-32 0 -55.5 -13.5t-23.5 -43.5q0 -22 24 -35.5t58 -23
t68.5 -24t58.5 -48t24 -85.5q0 -73 -47.5 -114t-122.5 -51l-38 -43l2 -2q36 6 41 6q32 0 56 -18t24 -51q0 -53 -37 -78.5t-88 -25.5q-71 0 -116 21l20 54q47 -15 70 -15q53 0 53 35q0 36 -44 36q-17 0 -42 -9z" />
    <glyph glyph-name="Scaron" unicode="&#x160;" 
d="M469 685l-13 -115q-69 30 -142 30q-44 0 -77 -22.5t-33 -74.5q0 -33 31.5 -55t76.5 -38t90 -37t76.5 -65t31.5 -109q0 -108 -73.5 -159.5t-188.5 -51.5q-36 0 -68.5 4t-47 7.5t-63.5 15.5l13 126q79 -43 158 -43q46 0 85 23.5t39 66.5q0 36 -31.5 60t-76.5 40.5t-90 37.5
t-76.5 64t-31.5 107q0 109 70.5 161t173.5 52q92 0 167 -25zM352 741h-101l-110 146h89l70 -86l68 86h89z" />
    <glyph glyph-name="scaron" unicode="&#x161;" horiz-adv-x="444" 
d="M384 508l-9 -101q-64 22 -120 22q-32 0 -55.5 -13.5t-23.5 -43.5q0 -22 24 -35.5t58 -23t68.5 -24t58.5 -48t24 -85.5q0 -84 -62.5 -126t-153.5 -42q-69 0 -152 22l8 110q68 -34 132 -34q33 0 60.5 14.5t27.5 48.5q0 23 -17.5 38t-43 21.5t-56 17.5t-56 24t-43 43
t-17.5 74q0 79 58.5 119.5t143.5 40.5q57 0 146 -19zM285 591h-101l-110 146h89l70 -86l68 86h89z" />
    <glyph glyph-name="Tcommaaccent" unicode="&#x162;" 
d="M208 0v588h-200v110h540v-110h-200v-588h-140zM221 -145v101h116v-77q0 -117 -120 -117v41q25 0 43.5 13.5t20.5 38.5h-60z" />
    <glyph glyph-name="tcommaaccent" unicode="&#x163;" horiz-adv-x="389" 
d="M113 155v262h-99v98h99v103l134 43v-146h119v-98h-119v-240q0 -85 63 -85q39 0 61 14l4 -106q-42 -12 -99 -12q-78 0 -120.5 44.5t-42.5 122.5zM176 -145v101h116v-77q0 -117 -120 -117v41q25 0 43.5 13.5t20.5 38.5h-60z" />
    <glyph glyph-name="Tcaron" unicode="&#x164;" 
d="M208 0v588h-200v110h540v-110h-200v-588h-140zM330 741h-101l-110 146h89l70 -86l68 86h89z" />
    <glyph glyph-name="tcaron" unicode="&#x165;" horiz-adv-x="389" 
d="M113 155v262h-99v98h99v103l134 43v-146h119v-98h-119v-240q0 -85 63 -85q39 0 61 14l4 -106q-42 -12 -99 -12q-78 0 -120.5 44.5t-42.5 122.5zM297 649v101h116v-77q0 -117 -120 -117v41q25 0 43.5 13.5t20.5 38.5h-60z" />
    <glyph glyph-name="Umacron" unicode="&#x16a;" horiz-adv-x="722" 
d="M76 252v446h140v-403q0 -197 145 -197t145 197v403h140v-446q0 -264 -285 -264t-285 264zM504 774h-288v80h288v-80z" />
    <glyph glyph-name="umacron" unicode="&#x16b;" horiz-adv-x="611" 
d="M542 515v-515h-127v70h-2q-67 -82 -169 -82q-88 0 -131.5 55t-43.5 147v325h134v-275q0 -25 0.5 -40t5.5 -38.5t13.5 -36.5t25.5 -23t42 -10q34 0 59 17t37 44.5t17 54.5t5 55v252h134zM450 624h-288v80h288v-80z" />
    <glyph glyph-name="Uring" unicode="&#x16e;" horiz-adv-x="722" 
d="M76 252v446h140v-403q0 -197 145 -197t145 197v403h140v-446q0 -264 -285 -264t-285 264zM254 840q0 44 32 75.5t75 31.5q44 0 75 -31.5t31 -75.5t-31 -75t-75 -31t-75.5 31t-31.5 75zM308 840q0 -22 15.5 -37t37.5 -15t37 15t15 37t-15 37.5t-37 15.5q-23 0 -38 -15.5
t-15 -37.5z" />
    <glyph glyph-name="uring" unicode="&#x16f;" horiz-adv-x="611" 
d="M542 515v-515h-127v70h-2q-67 -82 -169 -82q-88 0 -131.5 55t-43.5 147v325h134v-275q0 -25 0.5 -40t5.5 -38.5t13.5 -36.5t25.5 -23t42 -10q34 0 59 17t37 44.5t17 54.5t5 55v252h134zM200 690q0 44 32 75.5t75 31.5q44 0 75 -31.5t31 -75.5t-31 -75t-75 -31t-75.5 31
t-31.5 75zM254 690q0 -22 15.5 -37t37.5 -15t37 15t15 37t-15 37.5t-37 15.5q-23 0 -38 -15.5t-15 -37.5z" />
    <glyph glyph-name="Uhungarumlaut" unicode="&#x170;" horiz-adv-x="722" 
d="M76 252v446h140v-403q0 -197 145 -197t145 197v403h140v-446q0 -264 -285 -264t-285 264zM210 740l83 146h137l-137 -146h-83zM407 741l83 146h137l-137 -146h-83z" />
    <glyph glyph-name="uhungarumlaut" unicode="&#x171;" horiz-adv-x="611" 
d="M542 515v-515h-127v70h-2q-67 -82 -169 -82q-88 0 -131.5 55t-43.5 147v325h134v-275q0 -25 0.5 -40t5.5 -38.5t13.5 -36.5t25.5 -23t42 -10q34 0 59 17t37 44.5t17 54.5t5 55v252h134zM147 590l83 146h137l-137 -146h-83zM344 591l83 146h137l-137 -146h-83z" />
    <glyph glyph-name="Uogonek" unicode="&#x172;" horiz-adv-x="722" 
d="M216 698v-403q0 -197 145 -197t145 197v403h140v-446q0 -179 -129 -235q-55 -25 -75 -45q-43 -43 -43 -88t41 -45q31 0 56 33l40 -8q-20 -41 -48 -60t-77 -19q-45 0 -71.5 23t-26.5 67q0 62 92 116q-14 -2 -22 -2q-7 -1 -22 -1q-285 0 -285 264v446h140z" />
    <glyph glyph-name="uogonek" unicode="&#x173;" horiz-adv-x="611" 
d="M542 515v-515h-55q-82 -63 -82 -122q0 -45 41 -45q31 0 56 33l40 -8q-20 -41 -48 -60t-77 -19q-45 0 -71.5 23t-26.5 67q0 22 11 42.5t31 37.5t36.5 28t39.5 23h-22v70h-2q-67 -82 -169 -82q-88 0 -131.5 55t-43.5 147v325h134v-275q0 -25 0.5 -40t5.5 -38.5t13.5 -36.5
t25.5 -23t42 -10q34 0 59 17t37 44.5t17 54.5t5 55v252h134z" />
    <glyph glyph-name="Ydieresis" unicode="&#x178;" horiz-adv-x="667" 
d="M266 0v276l-255 422h164l165 -293l168 293h148l-250 -422v-276h-140zM388 875h116v-116h-116v116zM298 759h-116v116h116v-116z" />
    <glyph glyph-name="Zacute" unicode="&#x179;" 
d="M36 0v114l328 474h-315v110h464v-114l-331 -474h338v-110h-484zM219 741l83 146h137l-137 -146h-83z" />
    <glyph glyph-name="zacute" unicode="&#x17a;" horiz-adv-x="500" 
d="M47 411v104h408v-110l-256 -301h265v-104h-428v109l261 302h-250zM180 591l83 146h137l-137 -146h-83z" />
    <glyph glyph-name="Zdotaccent" unicode="&#x17b;" 
d="M36 0v114l328 474h-315v110h464v-114l-331 -474h338v-110h-484zM352 759h-116v116h116v-116z" />
    <glyph glyph-name="zdotaccent" unicode="&#x17c;" horiz-adv-x="500" 
d="M47 411v104h408v-110l-256 -301h265v-104h-428v109l261 302h-250zM328 609h-116v116h116v-116z" />
    <glyph glyph-name="Zcaron" unicode="&#x17d;" 
d="M36 0v114l328 474h-315v110h464v-114l-331 -474h338v-110h-484zM352 741h-101l-110 146h89l70 -86l68 86h89z" />
    <glyph glyph-name="zcaron" unicode="&#x17e;" horiz-adv-x="500" 
d="M47 411v104h408v-110l-256 -301h265v-104h-428v109l261 302h-250zM318 591h-101l-110 146h89l70 -86l68 86h89z" />
    <glyph glyph-name="florin" unicode="&#x192;" 
d="M124 406h114l31 140q19 85 63 124.5t131 39.5q43 0 84 -9l-18 -106q-44 11 -58 11q-31 0 -46 -21t-24 -61l-25 -118h121l-13 -80h-124l-61 -329q-5 -29 -10 -50t-19 -55.5t-32.5 -57t-51 -39.5t-74.5 -17q-71 0 -104 10l20 99q21 -5 52 -5q20 0 34 8.5t22 26.5t10 26.5
t6 29.5l70 353h-113z" />
    <glyph glyph-name="Scommaaccent" unicode="&#x218;" 
d="M469 685l-13 -115q-69 30 -142 30q-44 0 -77 -22.5t-33 -74.5q0 -33 31.5 -55t76.5 -38t90 -37t76.5 -65t31.5 -109q0 -108 -73.5 -159.5t-188.5 -51.5q-36 0 -68.5 4t-47 7.5t-63.5 15.5l13 126q79 -43 158 -43q46 0 85 23.5t39 66.5q0 36 -31.5 60t-76.5 40.5t-90 37.5
t-76.5 64t-31.5 107q0 109 70.5 161t173.5 52q92 0 167 -25zM219 -145v101h116v-77q0 -117 -120 -117v41q25 0 43.5 13.5t20.5 38.5h-60z" />
    <glyph glyph-name="scommaaccent" unicode="&#x219;" horiz-adv-x="444" 
d="M384 508l-9 -101q-64 22 -120 22q-32 0 -55.5 -13.5t-23.5 -43.5q0 -22 24 -35.5t58 -23t68.5 -24t58.5 -48t24 -85.5q0 -84 -62.5 -126t-153.5 -42q-69 0 -152 22l8 110q68 -34 132 -34q33 0 60.5 14.5t27.5 48.5q0 23 -17.5 38t-43 21.5t-56 17.5t-56 24t-43 43
t-17.5 74q0 79 58.5 119.5t143.5 40.5q57 0 146 -19zM163 -145v101h116v-77q0 -117 -120 -117v41q25 0 43.5 13.5t20.5 38.5h-60z" />
    <glyph glyph-name="circumflex" unicode="&#x2c6;" horiz-adv-x="278" 
d="M91 737h101l105 -146h-89l-68 86l-70 -86h-89z" />
    <glyph glyph-name="caron" unicode="&#x2c7;" horiz-adv-x="278" 
d="M192 591h-101l-110 146h89l70 -86l68 86h89z" />
    <glyph glyph-name="breve" unicode="&#x2d8;" horiz-adv-x="278" 
d="M-24 740h62q8 -38 34 -59t66 -21q83 0 102 80h62q-4 -67 -50 -109.5t-114 -42.5q-67 0 -113 42.5t-49 109.5z" />
    <glyph glyph-name="dotaccent" unicode="&#x2d9;" horiz-adv-x="278" 
d="M197 609h-116v116h116v-116z" />
    <glyph glyph-name="ring" unicode="&#x2da;" horiz-adv-x="278" 
d="M33 690q0 44 31.5 75.5t75.5 31.5t75 -31.5t31 -75.5t-31 -75t-75 -31t-75.5 31t-31.5 75zM87 690q0 -22 15.5 -37t37.5 -15t37 15t15 37t-15 37.5t-37 15.5t-37.5 -15.5t-15.5 -37.5z" />
    <glyph glyph-name="ogonek" unicode="&#x2db;" horiz-adv-x="278" 
d="M181 1h49q-83 -64 -83 -123q0 -45 41 -45q31 0 56 33l40 -8q-20 -41 -48 -60t-77 -19q-45 0 -71.5 23t-26.5 67q0 30 22 57.5t43.5 42t54.5 32.5z" />
    <glyph glyph-name="tilde" unicode="&#x2dc;" horiz-adv-x="278" 
d="M16 599h-54q0 47 29.5 84t72.5 37q29 0 81 -20q6 -2 18 -7.5t18.5 -7.5t16.5 -4.5t20 -2.5q22 0 33 14t11 35h54q0 -52 -26 -86.5t-71 -34.5q-39 0 -86 18q-47 19 -68 19q-24 0 -36.5 -13.5t-12.5 -30.5z" />
    <glyph glyph-name="hungarumlaut" unicode="&#x2dd;" horiz-adv-x="278" 
d="M-35 590l83 146h137l-137 -146h-83zM162 591l83 146h137l-137 -146h-83z" />
    <glyph glyph-name="endash" unicode="&#x2013;" horiz-adv-x="500" 
d="M0 223v92h500v-92h-500z" />
    <glyph glyph-name="emdash" unicode="&#x2014;" horiz-adv-x="1000" 
d="M0 223v92h1000v-92h-1000z" />
    <glyph glyph-name="quoteleft" unicode="&#x2018;" horiz-adv-x="278" 
d="M34 448l91 250h119l-63 -250h-147z" />
    <glyph glyph-name="quoteright" unicode="&#x2019;" horiz-adv-x="278" 
d="M34 448l64 250h146l-92 -250h-118z" />
    <glyph glyph-name="quotesinglbase" unicode="&#x201a;" horiz-adv-x="278" 
d="M34 -110l64 250h146l-92 -250h-118z" />
    <glyph glyph-name="quotedblleft" unicode="&#x201c;" horiz-adv-x="481" 
d="M34 448l91 250h119l-63 -250h-147zM237 448l91 250h119l-63 -250h-147z" />
    <glyph glyph-name="quotedblright" unicode="&#x201d;" horiz-adv-x="481" 
d="M34 448l64 250h146l-92 -250h-118zM237 448l64 250h146l-92 -250h-118z" />
    <glyph glyph-name="quotedblbase" unicode="&#x201e;" horiz-adv-x="481" 
d="M237 -110l64 250h146l-92 -250h-118zM34 -110l64 250h146l-92 -250h-118z" />
    <glyph glyph-name="dagger" unicode="&#x2020;" 
d="M59 435v104h155v159h128v-159h155v-104h-155v-435h-128v435h-155z" />
    <glyph glyph-name="daggerdbl" unicode="&#x2021;" 
d="M59 457v98h155v143h128v-143h155v-98h-155v-212h155v-98h-155v-147h-128v147h-155v98h155v212h-155z" />
    <glyph glyph-name="bullet" unicode="&#x2022;" horiz-adv-x="500" 
d="M76 349q0 72 51 123t123 51t123.5 -51t51.5 -123t-51.5 -123.5t-123.5 -51.5t-123 51.5t-51 123.5z" />
    <glyph glyph-name="ellipsis" unicode="&#x2026;" horiz-adv-x="1000" 
d="M237 0h-140v140h140v-140zM570 0h-140v140h140v-140zM903 0h-140v140h140v-140z" />
    <glyph glyph-name="perthousand" unicode="&#x2030;" horiz-adv-x="1000" 
d="M151 436q14 0 24 6t14.5 14t7 24t3 26.5t0.5 30.5q0 25 -1 38t-5 30.5t-15 25t-28 7.5q-12 0 -21 -3.5t-14.5 -12t-8.5 -16t-4 -21.5t-1.5 -22.5t-0.5 -25.5q0 -20 0.5 -30.5t3 -26.5t7.5 -24t15 -14t24 -6zM151 364q-142 0 -142 176q0 170 142 170q141 0 141 -170
q0 -176 -141 -176zM515 60q14 0 24 6t14.5 14t7 24t3 26.5t0.5 30.5q0 25 -1 38t-5 30.5t-15 25t-28 7.5q-12 0 -21 -3.5t-14.5 -12t-8.5 -16t-4 -21.5t-1.5 -22.5t-0.5 -25.5q0 -20 0.5 -30.5t3 -26.5t7.5 -24t15 -14t24 -6zM515 -12q-142 0 -142 176q0 170 142 170
q141 0 141 -170q0 -176 -141 -176zM851 -12q-142 0 -142 176q0 170 142 170q141 0 141 -170q0 -176 -141 -176zM851 60q14 0 24 6t14.5 14t7 24t3 26.5t0.5 30.5q0 25 -1 38t-5 30.5t-15 25t-28 7.5q-12 0 -21 -3.5t-14.5 -12t-8.5 -16t-4 -21.5t-1.5 -22.5t-0.5 -25.5
q0 -20 0.5 -30.5t3 -26.5t7.5 -24t15 -14t24 -6zM73 -22l429 742h82l-429 -742h-82z" />
    <glyph glyph-name="guilsinglleft" unicode="&#x2039;" horiz-adv-x="333" 
d="M49 269l118 205h126l-110 -205l110 -205h-126z" />
    <glyph glyph-name="guilsinglright" unicode="&#x203a;" horiz-adv-x="333" 
d="M284 269l-118 -205h-126l110 205l-110 205h126z" />
    <glyph glyph-name="fraction" unicode="&#x2044;" horiz-adv-x="167" 
d="M-166 -22l417 742h82l-417 -742h-82z" />
    <glyph glyph-name="trademark" unicode="&#x2122;" horiz-adv-x="1000" 
d="M465 282v416h145l99 -260l98 260h145v-416h-98v294h-2l-106 -294h-75l-106 294h-2v-294h-98zM165 282v336h-117v80h338v-80h-117v-336h-104z" />
    <glyph glyph-name="partialdiff" unicode="&#x2202;" horiz-adv-x="541" 
d="M120 594l-54 63q83 64 168 64q73 0 128.5 -35t88.5 -94q48 -87 48 -232q0 -26 -1 -48.5t-6 -62.5t-14.5 -72t-28 -69t-44 -62t-65 -41.5t-89.5 -16.5q-101 0 -157.5 68t-56.5 159q0 97 59.5 157.5t150.5 60.5q84 0 150 -62q4 134 -40 202.5t-119 68.5q-57 0 -118 -48z
M395 286q-44 49 -84 63q-24 8 -49 8q-60 0 -93.5 -42t-33.5 -105q0 -72 35.5 -109t84.5 -37q68 0 105 66t35 156z" />
    <glyph glyph-name="Delta" unicode="&#x2206;" horiz-adv-x="681" 
d="M387 712l285 -712h-662l273 712h104zM334 597l-187 -504h382z" />
    <glyph glyph-name="summation" unicode="&#x2211;" horiz-adv-x="637" 
d="M600 786v-93h-427l283 -401l-302 -414h458v-92h-587v81l309 424l-296 415v80h562z" />
    <glyph glyph-name="minus" unicode="&#x2212;" horiz-adv-x="600" 
d="M554 201h-508v104h508v-104z" />
    <glyph glyph-name="radical" unicode="&#x221a;" horiz-adv-x="526" 
d="M538 786l-212 -1000h-95l-156 322l-49 -23l-37 80l136 63l137 -289l173 847h103z" />
    <glyph glyph-name="notequal" unicode="&#x2260;" horiz-adv-x="600" 
d="M217 198l61 119h-232v96h281l77 151l84 -43l-56 -108h122v-96h-171l-61 -119h232v-96h-281l-77 -151l-84 43l56 108h-122v96h171z" />
    <glyph glyph-name="lessequal" unicode="&#x2264;" horiz-adv-x="600" 
d="M46 271v97l508 181v-102l-377 -127l377 -123v-101zM46 62h508v-96h-508v96z" />
    <glyph glyph-name="greaterequal" unicode="&#x2265;" horiz-adv-x="600" 
d="M554 271l-508 -175v101l377 123l-377 127v102l508 -181v-97zM554 62v-96h-508v96h508z" />
    <glyph glyph-name="lozenge" unicode="&#x25ca;" horiz-adv-x="593" 
d="M341 747l176 -391l-176 -391h-91l-174 391l174 391h91zM419 356l-123 295l-122 -295l122 -296z" />
    <glyph glyph-name="commaaccent" unicode="&#xf6c3;" horiz-adv-x="278" 
d="M80 -145v101h116v-77q0 -117 -120 -117v41q25 0 43.5 13.5t20.5 38.5h-60z" />
    </font>
</defs>
</svg>
